G04 ================== begin FILE IDENTIFICATION RECORD ==================*
G04 Layout Name:  C:/Users/user/Desktop/work/0801/EX1)OSCILLATOR/allegro/OSCILLATOR.brd*
G04 Film Name:    BOTTOM*
G04 File Format:  Gerber RS274X*
G04 File Origin:  Cadence Allegro 17.2-S052*
G04 Origin Date:  Thu Aug 01 12:06:38 2019*
G04 *
G04 Layer:  ETCH/BOTTOM*
G04 Layer:  PIN/BOTTOM*
G04 Layer:  VIA CLASS/BOTTOM*
G04 *
G04 Offset:    (0.0000 0.0000)*
G04 Mirror:    No*
G04 Mode:      Positive*
G04 Rotation:  0*
G04 FullContactRelief:  Yes*
G04 UndefLineWidth:     0.0000*
G04 ================== end FILE IDENTIFICATION RECORD ====================*
%FSLAX25Y25*MOMM*%
%IR0*IPPOS*OFA0.00000B0.00000*MIA0B0*SFA1.00000B1.00000*%
%ADD10C,.635*%
%ADD11C,.6096*%
%ADD12C,1.524*%
%ADD16C,1.651*%
%ADD14C,1.905*%
%ADD15R,1.524X1.524*%
%ADD13R,1.905X1.905*%
%ADD17C,.5*%
%ADD18C,1.*%
%ADD19C,2.5244*%
%ADD22C,2.6514*%
%ADD20R,5.0804X5.0804*%
%ADD21C,1.7784*%
G75*
%LPD*%
G75*
G36*
G01X754020Y6604000D02*
X2437520D01*
G02X2444710Y6586660I3J-10160D01*
G01X2088280Y6230220D01*
G03X2058980Y6159500I70717J-70728D01*
G01Y4486430D01*
X1834280Y4261720D01*
G03X1804980Y4191000I70717J-70728D01*
G01Y2835430D01*
X1546070Y2576520D01*
X1333500D01*
G03X1262780Y2547220I8J-100017D01*
G01X945280Y2229720D01*
G03X915980Y2159000I70717J-70728D01*
G01Y952500D01*
G03X945280Y881780I100017J8D01*
G01X1643780Y183280D01*
G03X1714500Y153980I70728J70717D01*
G01X7874000D01*
G03X7944720Y183280I-8J100017D01*
G01X8071720Y310280D01*
G03X8101020Y381000I-70717J70728D01*
G01Y1206500D01*
G03X8071720Y1277220I-100017J-8D01*
G01X7944720Y1404220D01*
G03X7944370Y1404580I-71877J-69530D01*
G02X7945750Y1420150I7152J7212D01*
G03X7950990Y1423980I-71838J103785D01*
G01X8572500D01*
G03X8643220Y1453280I-8J100017D01*
G01X8833720Y1643780D01*
G03X8863020Y1714500I-70717J70728D01*
G01Y2947980D01*
X9588500D01*
G03X9659220Y2977280I-8J100017D01*
G01X9809660Y3127710D01*
G02X9827000Y3120520I7180J-7187D01*
G01Y100010D01*
X127000D01*
Y6604000D01*
X245980D01*
Y6245980D01*
X754020D01*
Y6604000D01*
G37*
G36*
G01X3152930Y6249980D02*
X6821480D01*
Y4318000D01*
G03X6850780Y4247280I100017J8D01*
G01X7329850Y3768200D01*
X7330040Y3766410D01*
G03X7339170Y3734040I99461J10581D01*
G02X7330000Y3719520I-9174J-4362D01*
G01X7153430D01*
X7002200Y3870740D01*
G03X6931480Y3900040I-70728J-70717D01*
G01X5087600D01*
G03X5044050Y3910020I-43550J-90030D01*
G01X4902990D01*
G03X4872000Y3927540I-76992J-100019D01*
G02Y3946460I3703J9460D01*
G03X4952220Y4064000I-46001J117540D01*
G03X4826000Y4190220I-126220J0D01*
G03X4751660Y4166010I-6J-126222D01*
G02X4735520Y4174220I-5982J8211D01*
G01Y4454020D01*
G02X4751400Y4462410I10159J-5D01*
G03X4826000Y4439430I74600J109597D01*
G03Y4704570I0J132570D01*
G03X4751400Y4681590I0J-132577D01*
G02X4735520Y4689980I-5721J8395D01*
G01Y5397500D01*
G03X4706220Y5468220I-100017J-8D01*
G01X4689910Y5484540D01*
Y5488000D01*
G03X4660610Y5558720I-100017J-8D01*
G01X4560610Y5658720D01*
G03X4489890Y5688020I-70728J-70717D01*
G01X4418020D01*
Y5800570D01*
X4486430Y5868980D01*
X6245070D01*
X6249980Y5864070D01*
Y5675010D01*
G03X6217430Y5588000I100019J-87010D01*
G03X6482570I132570J0D01*
G03X6450020Y5675010I-132569J0D01*
G01Y5905500D01*
G03X6420720Y5976220I-100017J-8D01*
G01X6357220Y6039720D01*
G03X6286500Y6069020I-70728J-70717D01*
G01X4445000D01*
G03X4374280Y6039720I8J-100017D01*
G01X4247280Y5912720D01*
G03X4217980Y5842000I70717J-70728D01*
G01Y5675010D01*
G03X4185430Y5588000I100019J-87010D01*
G03X4318000Y5455430I132570J0D01*
G03X4403610Y5486780I0J132566D01*
G01X4405030Y5487980D01*
X4448460D01*
X4489870Y5446570D01*
Y5429900D01*
G03X4535480Y5345970I100028J0D01*
G01Y4012420D01*
G02X4517910Y4005470I-10160J0D01*
G03X4445000Y4037020I-72910J-68470D01*
G01X3619500D01*
G03X3519480Y3937000I0J-100020D01*
G01Y2286000D01*
G03X3619500Y2185980I100020J0D01*
G01X3722990D01*
G03X3810000Y2153430I87010J100019D01*
G03Y2418570I0J132570D01*
G03X3735400Y2395590I0J-132577D01*
G02X3719520Y2403980I-5721J8395D01*
G01Y3184020D01*
G02X3735400Y3192410I10159J-5D01*
G03X3810000Y3169430I74600J109597D01*
G03Y3434570I0J132570D01*
G03X3735400Y3411590I0J-132577D01*
G02X3719520Y3419980I-5721J8395D01*
G01Y3836980D01*
X4344980D01*
Y3810000D01*
G03X4445000Y3709980I100020J0D01*
G01X4749010D01*
G03X4902990I76990J100019D01*
G01X5010480D01*
G03X5054030Y3700000I43550J90030D01*
G01X5927570D01*
X6650300Y2977280D01*
G03X6721020Y2947980I70728J70717D01*
G01X7011980D01*
Y1854990D01*
G03X6985780Y1778000I100019J-76990D01*
G03X7066000Y1660460I126221J0D01*
G02Y1641540I-3703J-9460D01*
G03X6985780Y1524000I46001J-117540D01*
G03X7112000Y1397780I126220J0D01*
G03X7188990Y1423980I0J126219D01*
G01X7519980D01*
Y1121350D01*
G03X7501300Y1099750I100007J-105365D01*
G02X7484700I-8300J5857D01*
G03X7366000Y1161270I-118700J-83753D01*
G03X7270150Y1125160I0J-145267D01*
G02X7253960Y1129150I-6706J7632D01*
G03X7207250Y1161270I-46710J-17904D01*
G01X7016750D01*
G03X6966730Y1111250I0J-50020D01*
G01Y920750D01*
G03X7016750Y870730I50020J0D01*
G01X7207250D01*
G03X7253960Y902850I0J50024D01*
G02X7270150Y906840I9484J-3642D01*
G03X7366000Y870730I95850J109157D01*
G03X7484700Y932250I0J145273D01*
G02X7501300I8300J-5857D01*
G03X7620000Y870730I118700J83753D01*
G03X7765270Y1016000I0J145270D01*
G03X7720020Y1121350I-145262J0D01*
G01Y1297590D01*
G02X7737360Y1304780I10160J3D01*
G01X7779370Y1262780D01*
G03X7829210Y1235680I70736J70712D01*
G01X7830680Y1235370D01*
X7900980Y1165070D01*
Y422430D01*
X7832570Y354020D01*
X1755930D01*
X1116020Y993930D01*
Y2117570D01*
X1374930Y2376480D01*
X1587500D01*
G03X1658220Y2405780I-8J100017D01*
G01X1905000Y2652550D01*
X2033820Y2523730D01*
X2034060Y2522050D01*
G03X2159000Y2413780I124940J17953D01*
G03X2285220Y2540000I0J126220D01*
G03X2205000Y2657540I-126221J0D01*
G02Y2676460I3703J9460D01*
G03Y2911540I-46001J117540D01*
G02Y2930460I3703J9460D01*
G03X2285220Y3048000I-46001J117540D01*
G03X2032780I-126220J0D01*
G03X2113000Y2930460I126221J0D01*
G02Y2911540I-3703J-9460D01*
G03X2036740Y2825390I45996J-117543D01*
G02X2019720Y2820730I-9839J2524D01*
G01X2005020Y2835430D01*
Y4149570D01*
X2200430Y4344980D01*
X3302000D01*
G03X3304160Y4345000I154J100021D01*
G02X3307230Y4335800I109J-5076D01*
G03X3265480Y4254500I58283J-81300D01*
G01Y3148020D01*
X2997990D01*
G03X2921000Y3174220I-76990J-100019D01*
G03X2794780Y3048000I0J-126220D01*
G03X2875000Y2930460I126221J0D01*
G02Y2911540I-3703J-9460D01*
G03X2794780Y2794000I46001J-117540D01*
G03X3047220I126220J0D01*
G03X2967000Y2911540I-126221J0D01*
G02Y2930460I3703J9460D01*
G03X2997990Y2947980I-46002J117539D01*
G01X3265480D01*
Y1247930D01*
X3133570Y1116020D01*
X2391350D01*
G03X2286000Y1161270I-105350J-100012D01*
G03X2167300Y1099750I0J-145273D01*
G02X2150700I-8300J5857D01*
G03X2032000Y1161270I-118700J-83753D01*
G03X1936150Y1125160I0J-145267D01*
G02X1919960Y1129150I-6706J7632D01*
G03X1873250Y1161270I-46710J-17904D01*
G01X1682750D01*
G03X1632730Y1111250I0J-50020D01*
G01Y920750D01*
G03X1682750Y870730I50020J0D01*
G01X1873250D01*
G03X1919960Y902850I0J50024D01*
G02X1936150Y906840I9484J-3642D01*
G03X2032000Y870730I95850J109157D01*
G03X2150700Y932250I0J145273D01*
G02X2167300I8300J-5857D01*
G03X2286000Y870730I118700J83753D01*
G03X2391350Y915980I0J145262D01*
G01X3175000D01*
G03X3245720Y945280I-8J100017D01*
G01X3436220Y1135780D01*
G03X3465520Y1206500I-70717J70728D01*
G01Y4154480D01*
X3619500D01*
G03X3690220Y4183780I-8J100017D01*
G01X4007720Y4501280D01*
G03X4037020Y4572000I-70717J70728D01*
G01Y5651500D01*
G03X4007720Y5722220I-100017J-8D01*
G01X3626720Y6103220D01*
G03X3556000Y6132520I-70728J-70717D01*
G01X3060000D01*
G02X3052810Y6149860I-3J10160D01*
G01X3152930Y6249980D01*
G37*
G36*
G01X2581430Y6440480D02*
X3036080D01*
G02X3043030Y6422910I0J-10160D01*
G03X3040780Y6420720I68628J-72759D01*
G01X2723280Y6103220D01*
G03X2693980Y6032500I70717J-70728D01*
G01Y5664990D01*
G03X2667780Y5588000I100019J-76990D01*
G03X2794000Y5461780I126220J0D01*
G03X2911540Y5542000I0J126221D01*
G02X2930460I9460J-3703D01*
G03X3048000Y5461780I117540J46001D01*
G03Y5714220I0J126220D01*
G03X2930460Y5634000I0J-126221D01*
G02X2911540I-9460J3703D01*
G03X2894020Y5664990I-117539J-46002D01*
G01Y5932480D01*
X3514570D01*
X3836980Y5610070D01*
Y4613430D01*
X3578070Y4354520D01*
X3365500D01*
G03X3363340Y4354500I-154J-100021D01*
G02X3360270Y4363700I-109J5076D01*
G03X3402020Y4445000I-58283J81300D01*
G01Y4749010D01*
G03X3428220Y4826000I-100019J76990D01*
G03X3302000Y4952220I-126220J0D01*
G03X3184460Y4872000I0J-126221D01*
G02X3165540I-9460J3703D01*
G03X2930460I-117540J-46001D01*
G02X2911540I-9460J3703D01*
G03X2794000Y4952220I-117540J-46001D01*
G03Y4699780I0J-126220D01*
G03X2911540Y4780000I0J126221D01*
G02X2930460I9460J-3703D01*
G03X3165540I117540J46001D01*
G02X3184460I9460J-3703D01*
G03X3201980Y4749010I117539J46002D01*
G01Y4545020D01*
X2259020D01*
Y6118070D01*
X2581430Y6440480D01*
G37*
G36*
G01X6235000Y3700000D02*
X6890050D01*
X7041280Y3548780D01*
G03X7112000Y3519480I70728J70717D01*
G01X8150070D01*
X8345480Y3324070D01*
Y3238500D01*
G03X8377030Y3165590I100020J0D01*
G02X8370080Y3148020I-6950J-7410D01*
G01X8204990D01*
G03X8128000Y3174220I-76990J-100019D01*
G03X8001780Y3048000I0J-126220D01*
G03X8082000Y2930460I126221J0D01*
G02Y2911540I-3703J-9460D01*
G03X8001780Y2794000I46001J-117540D01*
G03X8254220I126220J0D01*
G03X8174000Y2911540I-126221J0D01*
G02Y2930460I3703J9460D01*
G03X8204990Y2947980I-46002J117539D01*
G01X8662980D01*
Y1755930D01*
X8531070Y1624020D01*
X7950990D01*
G03X7920000Y1641540I-76992J-100019D01*
G02Y1660460I3703J9460D01*
G03X8000220Y1778000I-46001J117540D01*
G03X7747780I-126220J0D01*
G03X7828000Y1660460I126221J0D01*
G02Y1641540I-3703J-9460D01*
G03X7761850Y1581920I45997J-117542D01*
G02X7745640Y1579400I-9026J4662D01*
G01X7730310Y1594720D01*
G03X7659590Y1624020I-70728J-70717D01*
G01X7466020D01*
Y2463010D01*
G03X7492220Y2540000I-100019J76990D01*
G03X7412000Y2657540I-126221J0D01*
G02Y2676460I3703J9460D01*
G03Y2911540I-46001J117540D01*
G02Y2930460I3703J9460D01*
G03X7492220Y3048000I-46001J117540D01*
G03X7366000Y3174220I-126220J0D01*
G03X7289010Y3148020I0J-126219D01*
G01X6762450D01*
X6227810Y3682660D01*
G02X6235000Y3700000I7187J7180D01*
G37*
G36*
G01X7212020Y2947980D02*
X7289010D01*
G03X7320000Y2930460I76992J100019D01*
G02Y2911540I-3703J-9460D01*
G03Y2676460I46001J-117540D01*
G02Y2657540I-3703J-9460D01*
G03X7239780Y2540000I46001J-117540D01*
G03X7265980Y2463010I126219J0D01*
G01Y1624020D01*
X7188990D01*
G03X7158000Y1641540I-76992J-100019D01*
G02Y1660460I3703J9460D01*
G03X7238220Y1778000I-46001J117540D01*
G03X7212020Y1854990I-126219J0D01*
G01Y2947980D01*
G37*
G36*
G01X9754020Y6604000D02*
X9827000D01*
Y3704480D01*
G02X9809660Y3697290I-10160J-3D01*
G01X9659220Y3847720D01*
G03X9588500Y3877020I-70728J-70717D01*
G01X7503740D01*
G03X7500220Y3880720I-74198J-67064D01*
G01X7021520Y4359430D01*
Y6249980D01*
X7324570D01*
X7519980Y6054570D01*
Y5918990D01*
G03X7493780Y5842000I100019J-76990D01*
G03X7620000Y5715780I126220J0D01*
G03X7737540Y5796000I0J126221D01*
G02X7756460I9460J-3703D01*
G03X7874000Y5715780I117540J46001D01*
G03Y5968220I0J126220D01*
G03X7756460Y5888000I0J-126221D01*
G02X7737540I-9460J3703D01*
G03X7720020Y5918990I-117539J-46002D01*
G01Y6096000D01*
G03X7690720Y6166720I-100017J-8D01*
G01X7436720Y6420720D01*
G03X7434470Y6422910I-70878J-70569D01*
G02X7441420Y6440480I6950J7410D01*
G01X8150070D01*
X8345480Y6245070D01*
Y5180020D01*
X8204990D01*
G03X8128000Y5206220I-76990J-100019D01*
G03X8010460Y5126000I0J-126221D01*
G02X7991540I-9460J3703D01*
G03X7756460I-117540J-46001D01*
G02X7737540I-9460J3703D01*
G03X7620000Y5206220I-117540J-46001D01*
G03Y4953780I0J-126220D01*
G03X7737540Y5034000I0J126221D01*
G02X7756460I9460J-3703D01*
G03X7798980Y4978490I117542J45996D01*
G01Y4889500D01*
G03X7820950Y4836450I75034J0D01*
G01X7947950Y4709450D01*
G03X8001000Y4687480I53050J53064D01*
G01X8826500D01*
G03X8879550Y4709450I0J75034D01*
G01X8943050Y4772950D01*
G03X8965020Y4826000I-53064J53050D01*
G01Y4978490D01*
G03X9016220Y5080000I-75028J101510D01*
G03X8936000Y5197540I-126221J0D01*
G02Y5216460I3703J9460D01*
G03X9016220Y5334000I-46001J117540D01*
G03X8763780I-126220J0D01*
G03X8844000Y5216460I126221J0D01*
G02Y5197540I-3703J-9460D01*
G03X8763780Y5080000I46001J-117540D01*
G03X8814980Y4978490I126228J0D01*
G01Y4857070D01*
X8795430Y4837520D01*
X8032070D01*
X7949020Y4920570D01*
Y4978490D01*
G03X7991540Y5034000I-75022J101506D01*
G02X8010460I9460J-3703D01*
G03X8128000Y4953780I117540J46001D01*
G03X8204990Y4979980I0J126219D01*
G01X8445500D01*
G03X8545520Y5080000I0J100020D01*
G01Y6286500D01*
G03X8516220Y6357220I-100017J-8D01*
G01X8286790Y6586660D01*
G02X8293980Y6604000I7187J7180D01*
G01X9245980D01*
Y6245980D01*
X9754020D01*
Y6604000D01*
G37*
G36*
G01X8300000Y3676980D02*
X9547070D01*
X9678980Y3545070D01*
Y3279930D01*
X9643450Y3244400D01*
G02X9626110Y3251170I-7187J7182D01*
G03X9546000Y3363540I-126113J-5167D01*
G02Y3382460I3703J9460D01*
G03X9626220Y3500000I-46001J117540D01*
G03X9373780I-126220J0D01*
G03X9454000Y3382460I126221J0D01*
G02Y3363540I-3703J-9460D01*
G03X9423010Y3346020I46002J-117539D01*
G01X8628500D01*
G03X8591390Y3338880I0J-100009D01*
G01X8590490Y3338520D01*
X8545520D01*
Y3365500D01*
G03X8516220Y3436220I-100017J-8D01*
G01X8292810Y3659640D01*
G02X8300000Y3676980I7187J7180D01*
G37*
%LPC*%
G75*
G36*
G01X716000Y1914460D02*
G02X635780Y2032000I46001J117540D01*
G02X888220I126220J0D01*
G02X808000Y1914460I-126221J0D01*
G03Y1895540I3703J-9460D01*
G02X888220Y1778000I-46001J-117540D01*
G02X635780I-126220J0D01*
G02X716000Y1895540I126221J0D01*
G03Y1914460I-3703J9460D01*
G37*
G36*
G01X454000Y3882460D02*
G02X373780Y4000000I46001J117540D01*
G02X626220I126220J0D01*
G02X546000Y3882460I-126221J0D01*
G03Y3863540I3703J-9460D01*
G02Y3628460I-46001J-117540D01*
G03Y3609540I3703J-9460D01*
G02X626220Y3492000I-46001J-117540D01*
G02X373780I-126220J0D01*
G02X454000Y3609540I126221J0D01*
G03Y3628460I-3703J9460D01*
G02Y3863540I46001J117540D01*
G03Y3882460I-3703J9460D01*
G37*
G36*
G01X2070080Y3225800D02*
Y3378200D01*
G02X2082800Y3390920I12720J0D01*
G01X2235200D01*
G02X2247920Y3378200I0J-12720D01*
G01Y3225800D01*
G02X2235200Y3213080I-12720J0D01*
G01X2082800D01*
G02X2070080Y3225800I0J12720D01*
G37*
G36*
G01X1478000Y1914460D02*
G02X1397780Y2032000I46001J117540D01*
G02X1650220I126220J0D01*
G02X1570000Y1914460I-126221J0D01*
G03Y1895540I3703J-9460D01*
G02X1650220Y1778000I-46001J-117540D01*
G02X1397780I-126220J0D01*
G02X1478000Y1895540I126221J0D01*
G03Y1914460I-3703J9460D01*
G37*
G36*
G01X2451080Y4749800D02*
Y4902200D01*
G02X2463800Y4914920I12720J0D01*
G01X2616200D01*
G02X2628920Y4902200I0J-12720D01*
G01Y4749800D01*
G02X2616200Y4737080I-12720J0D01*
G01X2463800D01*
G02X2451080Y4749800I0J12720D01*
G37*
G36*
G01X7277080Y3225800D02*
Y3378200D01*
G02X7289800Y3390920I12720J0D01*
G01X7442200D01*
G02X7454920Y3378200I0J-12720D01*
G01Y3225800D01*
G02X7442200Y3213080I-12720J0D01*
G01X7289800D01*
G02X7277080Y3225800I0J12720D01*
G37*
G36*
G01Y5003800D02*
Y5156200D01*
G02X7289800Y5168920I12720J0D01*
G01X7442200D01*
G02X7454920Y5156200I0J-12720D01*
G01Y5003800D01*
G02X7442200Y4991080I-12720J0D01*
G01X7289800D01*
G02X7277080Y5003800I0J12720D01*
G37*
G54D19*
X1524000Y5588000D03*
X1778000Y5334000D03*
Y5842000D03*
G54D22*
X5334000Y5588000D03*
Y4572000D03*
X5842000Y5588000D03*
Y4572000D03*
X6096000Y3302000D03*
Y2286000D03*
X4318000Y3302000D03*
Y2286000D03*
X5588000Y3302000D03*
Y2286000D03*
X4826000Y3302000D03*
Y2286000D03*
X6350000Y4572000D03*
X4318000D03*
X4826000Y5588000D03*
G54D20*
X500000Y500000D03*
X9500000D03*
G54D21*
X2921000Y2540000D03*
Y3302000D03*
X3302000Y5588000D03*
X2540000D03*
X8128000Y2540000D03*
Y3302000D03*
Y5842000D03*
X7366000D03*
%LPD*%
G75*
G54D10*
X500000Y500000D03*
Y6500000D03*
X9500000Y500000D03*
Y6500000D03*
G54D11*
X525890Y857900D03*
Y1365900D03*
Y1873900D03*
Y2381900D03*
Y2889900D03*
X1033890D03*
Y3397900D03*
Y3905900D03*
X525890Y4413900D03*
X1033890D03*
X525890Y4921900D03*
X1033890D03*
X525890Y5429900D03*
X1033890D03*
X525890Y5937900D03*
X1033890D03*
Y6445900D03*
X1541890Y857900D03*
Y1365900D03*
Y3905900D03*
Y4413900D03*
Y4921900D03*
Y5429900D03*
Y5937900D03*
Y6445900D03*
X2557890Y857900D03*
Y1873900D03*
X2049890D03*
X2557890Y1365900D03*
Y2381900D03*
X2049890D03*
X2557890Y3397900D03*
Y2889900D03*
X2049890D03*
X2557890Y3905900D03*
X2049890D03*
Y4921900D03*
X2557890Y5429900D03*
X2049890D03*
X2557890Y5937900D03*
X2049890D03*
Y6445900D03*
X3065890Y857900D03*
Y1873900D03*
Y1365900D03*
Y2381900D03*
Y3397900D03*
Y2889900D03*
Y3905900D03*
Y5429900D03*
X4081890Y857900D03*
X3573890D03*
X4081890Y1873900D03*
X3573890D03*
X4081890Y1365900D03*
X3573890D03*
Y2381900D03*
X4081890Y3397900D03*
X3573890D03*
Y2889900D03*
X4081890Y3905900D03*
X3573890D03*
X4081890Y4921900D03*
Y4413900D03*
X3573890Y4921900D03*
Y4413900D03*
X4081890Y5429900D03*
X3573890D03*
X4081890Y5937900D03*
X4589890Y857900D03*
Y1873900D03*
Y1365900D03*
Y3905900D03*
Y4921900D03*
Y4413900D03*
Y5429900D03*
Y5937900D03*
X5605890Y857900D03*
X5097890D03*
X5605890Y1873900D03*
X5097890D03*
X5605890Y1365900D03*
X5097890D03*
Y2381900D03*
X5605890Y2889900D03*
X5097890D03*
X5605890Y3905900D03*
X5097890D03*
X5605890Y4921900D03*
X5097890D03*
Y4413900D03*
X5605890Y5429900D03*
X5097890D03*
X5605890Y5937900D03*
X5097890D03*
X6113890Y857900D03*
Y1873900D03*
Y1365900D03*
Y2889900D03*
Y3905900D03*
Y4921900D03*
Y5429900D03*
Y5937900D03*
X6621890Y857900D03*
X7129890Y1873900D03*
X6621890D03*
X7129890Y1365900D03*
X6621890D03*
Y2381900D03*
X7129890D03*
Y3397900D03*
X6621890D03*
Y2889900D03*
X7129890D03*
Y3905900D03*
X6621890D03*
Y4921900D03*
X7129890D03*
X6621890Y5429900D03*
X7129890D03*
X6621890Y5937900D03*
X7129890D03*
X7637890Y857900D03*
Y1873900D03*
Y2381900D03*
Y3397900D03*
Y2889900D03*
Y3905900D03*
Y5429900D03*
X8653890Y349900D03*
X8145890D03*
Y857900D03*
X8653890D03*
Y1873900D03*
X8145890D03*
Y1365900D03*
X8653890D03*
Y2381900D03*
X8145890D03*
X8653890Y3397900D03*
Y2889900D03*
X8145890Y3905900D03*
X8653890D03*
X8145890Y4413900D03*
X8653890D03*
X8145890Y4921900D03*
X8653890D03*
X8145890Y5429900D03*
X8653890D03*
Y5937900D03*
Y6445900D03*
X9161890Y349900D03*
Y857900D03*
Y1365900D03*
Y1873900D03*
Y2381900D03*
Y3397900D03*
Y2889900D03*
Y3905900D03*
Y4413900D03*
Y4921900D03*
Y5429900D03*
Y5937900D03*
Y6445900D03*
X9669890Y857900D03*
Y1365900D03*
Y1873900D03*
Y2381900D03*
Y3397900D03*
Y2889900D03*
Y3905900D03*
Y4413900D03*
Y4921900D03*
Y5429900D03*
Y5937900D03*
G54D12*
X762000Y1778000D03*
Y2032000D03*
X500000Y3492000D03*
Y3746000D03*
Y4000000D03*
X1524000Y1778000D03*
Y2032000D03*
X1778000Y5334000D03*
X1524000Y5588000D03*
X1778000Y5842000D03*
X2159000Y2540000D03*
Y2794000D03*
Y3048000D03*
X2540000Y5588000D03*
X2921000Y2540000D03*
Y2794000D03*
Y3048000D03*
Y3302000D03*
X3302000Y4826000D03*
X3048000D03*
X2794000D03*
X3302000Y5588000D03*
X3048000D03*
X2794000D03*
X4826000Y3810000D03*
Y4064000D03*
X7112000Y1778000D03*
Y1524000D03*
X7874000D03*
Y1778000D03*
X7366000Y2540000D03*
Y2794000D03*
Y3048000D03*
X7874000Y5080000D03*
X7620000D03*
X7874000Y5842000D03*
X7620000D03*
X7366000D03*
X8128000Y2540000D03*
Y2794000D03*
Y3048000D03*
Y3302000D03*
Y5080000D03*
Y5842000D03*
X9500000Y3246000D03*
Y3500000D03*
X8890000Y5334000D03*
Y5080000D03*
G54D13*
X1778000Y1016000D03*
X7112000D03*
G54D14*
X2032000D03*
X2286000D03*
X7366000D03*
X7620000D03*
G54D15*
X2159000Y3302000D03*
X2540000Y4826000D03*
X7366000Y3302000D03*
Y5080000D03*
G54D16*
X3810000Y2286000D03*
Y3302000D03*
X4826000Y2286000D03*
X4318000D03*
X4826000Y3302000D03*
X4318000D03*
Y4572000D03*
X4826000D03*
X4318000Y5588000D03*
X4826000D03*
X5588000Y2286000D03*
Y3302000D03*
X5334000Y4572000D03*
Y5588000D03*
X6096000Y2286000D03*
Y3302000D03*
X6350000Y4572000D03*
X5842000D03*
X6350000Y5588000D03*
X5842000D03*
G54D17*
G01X8890000Y5080000D02*
Y4826000D01*
X8826500Y4762500D01*
X8001000D01*
X7874000Y4889500D01*
Y5080000D01*
G54D18*
G01X1905000Y2794000D02*
X1587500Y2476500D01*
X1333500D01*
X1016000Y2159000D01*
Y952500D01*
X1714500Y254000D01*
X7874000D01*
X8001000Y381000D01*
Y1206500D01*
X7874000Y1333500D01*
X7850090D01*
X7659590Y1524000D01*
G01X1905000Y2794000D02*
Y4191000D01*
X2159000Y4445000D01*
G01Y2540000D02*
X1905000Y2794000D01*
G01X2286000Y1016000D02*
X3175000D01*
X3365500Y1206500D01*
Y3048000D01*
G01X3302000Y4826000D02*
Y4445000D01*
X2159000D01*
G01D02*
Y6159500D01*
X2540000Y6540500D01*
X8191500D01*
X8445500Y6286500D01*
Y5080000D01*
X8128000D01*
G01X3365500Y3048000D02*
X2921000D01*
G01X2794000Y6032500D02*
X3556000D01*
X3937000Y5651500D01*
Y4572000D01*
X3619500Y4254500D01*
X3365500D01*
Y3048000D01*
G01X2794000Y6032500D02*
Y5588000D01*
G01Y6032500D02*
X3111500Y6350000D01*
X6921500D01*
G01X4635500Y3810000D02*
X4445000D01*
Y3937000D01*
X3619500D01*
Y2286000D01*
X3810000D01*
G01X4826000Y3810000D02*
X4635500D01*
G01X4826000D02*
X5044050D01*
X5054030Y3800020D01*
X5969000D01*
G01X4589890Y5429900D02*
X4603100D01*
X4635500Y5397500D01*
Y3810000D01*
G01X4318000Y5588000D02*
Y5842000D01*
X4445000Y5969000D01*
X6286500D01*
X6350000Y5905500D01*
Y5588000D01*
G01X4589890Y5429900D02*
Y5488000D01*
X4489890Y5588000D01*
X4318000D01*
G01X7112000Y3048000D02*
X6721020D01*
X5969000Y3800020D01*
G01D02*
X6931480D01*
X7112000Y3619500D01*
X8191500D01*
X8445500Y3365500D01*
Y3238500D01*
X8628500D01*
Y3246000D01*
X9500000D01*
G01X7112000Y1778000D02*
Y3048000D01*
G01X7366000Y1524000D02*
X7112000D01*
G01Y3048000D02*
X7366000D01*
G01X8763000D02*
X9588500D01*
X9779000Y3238500D01*
Y3586500D01*
X9588500Y3777000D01*
X7429500D01*
Y3810000D01*
X6921500Y4318000D01*
Y6350000D01*
G01D02*
X7366000D01*
X7620000Y6096000D01*
Y5842000D01*
G01X7659590Y1524000D02*
X7620000Y1484410D01*
Y1016000D01*
G01X7874000Y1524000D02*
X8572500D01*
X8763000Y1714500D01*
Y3048000D01*
G01X7366000Y1524000D02*
Y2540000D01*
G01Y1524000D02*
X7659590D01*
G01X8763000Y3048000D02*
X8128000D01*
M02*
