G04 ================== begin FILE IDENTIFICATION RECORD ==================*
G04 Layout Name:  C:/Users/user/Desktop/work/0801/EX1)OSCILLATOR/allegro/OSCILLATOR.brd*
G04 Film Name:    SilkTop*
G04 File Format:  Gerber RS274X*
G04 File Origin:  Cadence Allegro 17.2-S052*
G04 Origin Date:  Thu Aug 01 11:20:29 2019*
G04 *
G04 Layer:  BOARD GEOMETRY/DIMENSION*
G04 Layer:  BOARD GEOMETRY/DESIGN_OUTLINE*
G04 Layer:  REF DES/SILKSCREEN_TOP*
G04 Layer:  PACKAGE GEOMETRY/SILKSCREEN_TOP*
G04 Layer:  BOARD GEOMETRY/SILKSCREEN_TOP*
G04 *
G04 Offset:    (0.0000 0.0000)*
G04 Mirror:    No*
G04 Mode:      Positive*
G04 Rotation:  0*
G04 FullContactRelief:  No*
G04 UndefLineWidth:     0.2000*
G04 ================== end FILE IDENTIFICATION RECORD ====================*
%FSLAX25Y25*MOIN*%
%IR0*IPPOS*OFA0.00000B0.00000*MIA0B0*SFA1.00000B1.00000*%
%ADD10C,.019685*%
%ADD11C,.008*%
%ADD12C,.007874*%
G75*
%LPD*%
G75*
G54D10*
G01X59347Y39785D02*
Y25678D01*
X59720Y22724D01*
X60467Y20756D01*
X61400Y20100D01*
X62333Y20756D01*
X63080Y22724D01*
X63453Y25678D01*
Y39785D01*
G01X66847Y23052D02*
X67407Y21412D01*
X68060Y20428D01*
X68900Y20100D01*
X69740Y20756D01*
X70393Y22068D01*
X70860Y24365D01*
X70953Y26989D01*
X70767Y29614D01*
X70300Y31255D01*
X69646Y32567D01*
X68993Y32895D01*
X68340Y32567D01*
X67500Y31255D01*
X67780Y39785D01*
X70300D01*
G01X52800Y240000D02*
Y259685D01*
G01X60300Y253123D02*
Y240000D01*
G01Y258372D02*
X60113Y258700D01*
Y259357D01*
X60300Y259685D01*
X60487Y259357D01*
Y258700D01*
X60300Y258372D01*
G01X66213Y240000D02*
Y253123D01*
G01Y249842D02*
X66587Y251483D01*
X67147Y252795D01*
X67893Y253123D01*
X68546Y252795D01*
X69107Y251483D01*
X69387Y249186D01*
Y240000D01*
G01X73900Y248858D02*
X76887D01*
X76607Y251155D01*
X76140Y252467D01*
X75487Y253123D01*
X74833Y252795D01*
X74273Y251811D01*
X73900Y249514D01*
X73713Y247546D01*
Y245578D01*
X73900Y243609D01*
X74367Y241640D01*
X74927Y240328D01*
X75580Y240000D01*
X76233Y240656D01*
X76887Y242624D01*
G01X87967Y253123D02*
X89087Y240000D01*
X90300Y253123D01*
X91513Y240000D01*
X92633Y253123D01*
G01X97800D02*
Y240000D01*
G01Y258372D02*
X97613Y258700D01*
Y259357D01*
X97800Y259685D01*
X97987Y259357D01*
Y258700D01*
X97800Y258372D01*
G01X106980Y259685D02*
Y240000D01*
G01Y242952D02*
X106607Y241312D01*
X106046Y240328D01*
X105393Y240000D01*
X104647Y240656D01*
X104087Y242296D01*
X103713Y244265D01*
X103620Y246561D01*
X103713Y248858D01*
X104087Y250827D01*
X104647Y252467D01*
X105393Y253123D01*
X106046Y252795D01*
X106513Y252139D01*
X106980Y250827D01*
G01X112800Y259685D02*
Y240000D01*
G01X111493Y253123D02*
X114107D01*
G01X118713Y240000D02*
Y259685D01*
G01Y250171D02*
X119180Y251811D01*
X119647Y252795D01*
X120393Y253123D01*
X120953Y252795D01*
X121607Y251483D01*
X121887Y249514D01*
Y240000D01*
G01X135300Y239344D02*
X135113Y239672D01*
Y240328D01*
X135300Y240656D01*
X135487Y240328D01*
Y239672D01*
X135300Y239344D01*
G01Y248202D02*
X135113Y248530D01*
Y249186D01*
X135300Y249514D01*
X135487Y249186D01*
Y248530D01*
X135300Y248202D01*
G01X150300Y259685D02*
X149553Y259029D01*
X148993Y257388D01*
X148620Y255420D01*
X148340Y252795D01*
X148247Y249842D01*
X148340Y246889D01*
X148620Y244265D01*
X148993Y242296D01*
X149553Y240656D01*
X150300Y240000D01*
X151046Y240656D01*
X151607Y242296D01*
X151980Y244265D01*
X152260Y246889D01*
X152353Y249842D01*
X152260Y252795D01*
X151980Y255420D01*
X151607Y257388D01*
X151046Y259029D01*
X150300Y259685D01*
G01X157800Y239344D02*
X157613Y239672D01*
Y240328D01*
X157800Y240656D01*
X157987Y240328D01*
Y239672D01*
X157800Y239344D01*
G01X163247Y242952D02*
X163807Y241312D01*
X164460Y240328D01*
X165300Y240000D01*
X166140Y240656D01*
X166793Y241968D01*
X167260Y244265D01*
X167353Y246889D01*
X167167Y249514D01*
X166700Y251155D01*
X166046Y252467D01*
X165393Y252795D01*
X164740Y252467D01*
X163900Y251155D01*
X164180Y259685D01*
X166700D01*
G01X170000Y240000D02*
Y253123D01*
G01Y249514D02*
X170280Y251155D01*
X170747Y252467D01*
X171400Y253123D01*
X172053Y252467D01*
X172520Y251155D01*
X172800Y249514D01*
Y240000D01*
G01Y249514D02*
X173080Y251155D01*
X173546Y252467D01*
X174200Y253123D01*
X174853Y252467D01*
X175320Y251155D01*
X175600Y249186D01*
Y240000D01*
G01X177500D02*
Y253123D01*
G01Y249514D02*
X177780Y251155D01*
X178247Y252467D01*
X178900Y253123D01*
X179553Y252467D01*
X180020Y251155D01*
X180300Y249514D01*
Y240000D01*
G01Y249514D02*
X180580Y251155D01*
X181046Y252467D01*
X181700Y253123D01*
X182353Y252467D01*
X182820Y251155D01*
X183100Y249186D01*
Y240000D01*
G01X193713D02*
Y259685D01*
G01Y250171D02*
X194180Y251811D01*
X194647Y252795D01*
X195393Y253123D01*
X195953Y252795D01*
X196607Y251483D01*
X196887Y249514D01*
Y240000D01*
G01X201400Y248858D02*
X204387D01*
X204107Y251155D01*
X203640Y252467D01*
X202987Y253123D01*
X202333Y252795D01*
X201773Y251811D01*
X201400Y249514D01*
X201213Y247546D01*
Y245578D01*
X201400Y243609D01*
X201867Y241640D01*
X202427Y240328D01*
X203080Y240000D01*
X203733Y240656D01*
X204387Y242624D01*
G01X210300Y253123D02*
Y240000D01*
G01Y258372D02*
X210113Y258700D01*
Y259357D01*
X210300Y259685D01*
X210487Y259357D01*
Y258700D01*
X210300Y258372D01*
G01X216493Y235079D02*
X217147Y233767D01*
X217893Y233439D01*
X218546Y233767D01*
X219107Y235407D01*
X219480Y237703D01*
Y253123D01*
G01Y250499D02*
X219107Y251811D01*
X218546Y252795D01*
X217893Y253123D01*
X217147Y252467D01*
X216680Y251155D01*
X216307Y248858D01*
X216120Y246561D01*
X216213Y244593D01*
X216587Y242296D01*
X217147Y240656D01*
X217893Y240000D01*
X218453Y240328D01*
X219107Y241640D01*
X219480Y242952D01*
G01X223713Y240000D02*
Y259685D01*
G01Y250171D02*
X224180Y251811D01*
X224647Y252795D01*
X225393Y253123D01*
X225953Y252795D01*
X226607Y251483D01*
X226887Y249514D01*
Y240000D01*
G01X232800Y259685D02*
Y240000D01*
G01X231493Y253123D02*
X234107D01*
G01X247800Y239344D02*
X247613Y239672D01*
Y240328D01*
X247800Y240656D01*
X247987Y240328D01*
Y239672D01*
X247800Y239344D01*
G01Y248202D02*
X247613Y248530D01*
Y249186D01*
X247800Y249514D01*
X247987Y249186D01*
Y248530D01*
X247800Y248202D01*
G01X260747Y242952D02*
X261307Y241312D01*
X261960Y240328D01*
X262800Y240000D01*
X263640Y240656D01*
X264293Y241968D01*
X264760Y244265D01*
X264853Y246889D01*
X264667Y249514D01*
X264200Y251155D01*
X263546Y252467D01*
X262893Y252795D01*
X262240Y252467D01*
X261400Y251155D01*
X261680Y259685D01*
X264200D01*
G01X275000Y240000D02*
Y253123D01*
G01Y249514D02*
X275280Y251155D01*
X275747Y252467D01*
X276400Y253123D01*
X277053Y252467D01*
X277520Y251155D01*
X277800Y249514D01*
Y240000D01*
G01Y249514D02*
X278080Y251155D01*
X278546Y252467D01*
X279200Y253123D01*
X279853Y252467D01*
X280320Y251155D01*
X280600Y249186D01*
Y240000D01*
G01X282500D02*
Y253123D01*
G01Y249514D02*
X282780Y251155D01*
X283247Y252467D01*
X283900Y253123D01*
X284553Y252467D01*
X285020Y251155D01*
X285300Y249514D01*
Y240000D01*
G01Y249514D02*
X285580Y251155D01*
X286046Y252467D01*
X286700Y253123D01*
X287353Y252467D01*
X287820Y251155D01*
X288100Y249186D01*
Y240000D01*
G01X122800Y270000D02*
X122053Y270328D01*
X121400Y271640D01*
X120840Y273609D01*
X120467Y275906D01*
X120280Y278530D01*
Y281155D01*
X120467Y283780D01*
X120840Y286076D01*
X121400Y288044D01*
X122053Y289357D01*
X122800Y289685D01*
X123546Y289357D01*
X124200Y288044D01*
X124760Y286076D01*
X125133Y283780D01*
X125320Y281155D01*
Y278530D01*
X125133Y275906D01*
X124760Y273609D01*
X124200Y271640D01*
X123546Y270328D01*
X122800Y270000D01*
G01X128340Y272624D02*
X129087Y270984D01*
X129927Y270000D01*
X130673D01*
X131420Y270984D01*
X131980Y272624D01*
X132260Y274921D01*
X132073Y277217D01*
X131607Y279186D01*
X130767Y280499D01*
X129647Y281155D01*
X128993Y282467D01*
X128713Y284764D01*
X128900Y287060D01*
X129367Y288700D01*
X130020Y289685D01*
X130673D01*
X131327Y289029D01*
X131887Y287388D01*
G01X139853Y288044D02*
X139293Y289029D01*
X138640Y289685D01*
X137893D01*
X137053Y288700D01*
X136400Y287060D01*
X135933Y285092D01*
X135560Y281811D01*
X135467Y278858D01*
X135654Y275906D01*
X135933Y273937D01*
X136493Y271968D01*
X137147Y270656D01*
X137800Y270000D01*
X138453D01*
X139107Y270656D01*
X139667Y271640D01*
X140133Y272952D01*
G01X144180Y289685D02*
X146420D01*
G01X145300D02*
Y270000D01*
G01X144180D02*
X146420D01*
G01X150933Y289685D02*
Y270000D01*
X154667D01*
G01X158433Y289685D02*
Y270000D01*
X162167D01*
G01X165467D02*
X167800Y289685D01*
X170133Y270000D01*
G01X169293Y276889D02*
X166307D01*
G01X175300Y289685D02*
Y270000D01*
G01X173154Y289685D02*
X177446D01*
G01X182800Y270000D02*
X182053Y270328D01*
X181400Y271640D01*
X180840Y273609D01*
X180467Y275906D01*
X180280Y278530D01*
Y281155D01*
X180467Y283780D01*
X180840Y286076D01*
X181400Y288044D01*
X182053Y289357D01*
X182800Y289685D01*
X183546Y289357D01*
X184200Y288044D01*
X184760Y286076D01*
X185133Y283780D01*
X185320Y281155D01*
Y278530D01*
X185133Y275906D01*
X184760Y273609D01*
X184200Y271640D01*
X183546Y270328D01*
X182800Y270000D01*
G01X188433D02*
Y289685D01*
X190767D01*
X191513Y288700D01*
X191980Y287388D01*
X192167Y284764D01*
X191980Y282139D01*
X191420Y280499D01*
X190767Y279514D01*
X188433D01*
G01X190767D02*
X192167Y270000D01*
G01X269347Y39785D02*
Y25678D01*
X269720Y22724D01*
X270467Y20756D01*
X271400Y20100D01*
X272333Y20756D01*
X273080Y22724D01*
X273453Y25678D01*
Y39785D01*
G01X278713Y20100D02*
X278900Y24365D01*
X279180Y27974D01*
X279553Y31255D01*
X280020Y34864D01*
X280767Y39785D01*
X277033D01*
G54D11*
G01X59000Y51500D02*
Y29000D01*
G01D02*
X101000D01*
G01Y51500D02*
X59000D01*
G01Y46000D02*
X101000D01*
G01Y29000D02*
Y51500D01*
G01X269000D02*
Y29000D01*
G01D02*
X311000D01*
G01Y51500D02*
X269000D01*
G01Y46000D02*
X311000D01*
G01Y29000D02*
Y51500D01*
G54D12*
G01X0Y0D02*
Y275591D01*
X393701D01*
Y0D01*
X0D01*
G01X40000Y75000D02*
G03I-10000J0D01*
G01X14685Y162480D02*
X24685D01*
Y132480D01*
X14685D01*
Y162480D01*
G01X26205Y161797D02*
X25895Y161605D01*
X25688Y161375D01*
X25585Y161107D01*
X25688Y160800D01*
X25895Y160570D01*
X26205Y160340D01*
X26619Y160264D01*
X28685D01*
G01X28169Y158659D02*
X28478Y158429D01*
X28633Y158160D01*
X28685Y157854D01*
X28582Y157470D01*
X28323Y157202D01*
X28013Y157125D01*
X27703Y157164D01*
X27445Y157317D01*
X26928Y158083D01*
X26567Y158429D01*
X26050Y158659D01*
X25585Y158735D01*
Y157125D01*
G01X70000Y75000D02*
G03I-10000J0D01*
G01X51157Y61417D02*
X51537Y61167D01*
X51980Y61000D01*
X52487D01*
X53057Y61250D01*
X53500Y61667D01*
X53817Y62167D01*
X54070Y63000D01*
X54133Y63750D01*
X54007Y64500D01*
X53817Y65000D01*
X53437Y65500D01*
X52993Y65833D01*
X52550Y66000D01*
X52107D01*
X51663Y65833D01*
X51283Y65583D01*
X50967Y65250D01*
G01X48843Y65000D02*
X48463Y65583D01*
X47957Y65917D01*
X47387Y66000D01*
X46880Y65917D01*
X46373Y65500D01*
X46057Y65000D01*
X45993Y64500D01*
X46120Y63917D01*
X46563Y63500D01*
X47007Y63333D01*
X47577D01*
G01X47007D02*
X46627Y63083D01*
X46310Y62667D01*
X46183Y62167D01*
X46310Y61667D01*
X46627Y61250D01*
X47197Y61000D01*
X47767Y61083D01*
X48337Y61417D01*
G01X55000Y207500D02*
Y232500D01*
X75000D01*
Y207500D01*
X55000D01*
G01X52933Y233700D02*
Y238700D01*
X54517D01*
X55023Y238450D01*
X55340Y238117D01*
X55467Y237450D01*
X55340Y236783D01*
X54960Y236367D01*
X54517Y236117D01*
X52933D01*
G01X54517D02*
X55467Y233700D01*
G01X59300D02*
Y238700D01*
X58540Y237700D01*
G01Y233700D02*
X60060D01*
G01X64400Y238700D02*
X63893Y238533D01*
X63513Y238117D01*
X63260Y237617D01*
X63070Y236950D01*
X63007Y236200D01*
X63070Y235450D01*
X63260Y234783D01*
X63513Y234283D01*
X63893Y233867D01*
X64400Y233700D01*
X64907Y233867D01*
X65287Y234283D01*
X65540Y234783D01*
X65730Y235450D01*
X65793Y236200D01*
X65730Y236950D01*
X65540Y237617D01*
X65287Y238117D01*
X64907Y238533D01*
X64400Y238700D01*
G01X81157Y61417D02*
X81537Y61167D01*
X81980Y61000D01*
X82487D01*
X83057Y61250D01*
X83500Y61667D01*
X83817Y62167D01*
X84070Y63000D01*
X84133Y63750D01*
X84007Y64500D01*
X83817Y65000D01*
X83437Y65500D01*
X82993Y65833D01*
X82550Y66000D01*
X82107D01*
X81663Y65833D01*
X81283Y65583D01*
X80967Y65250D01*
G01X76690Y66000D02*
Y61000D01*
X79033Y64583D01*
X75867D01*
G01X89000Y135000D02*
X95000D01*
X97500Y132500D01*
X102500D01*
X105000Y135000D01*
X111000D01*
Y95000D01*
X89000D01*
Y135000D01*
G01X95000Y194000D02*
Y200000D01*
X97500Y202500D01*
Y207500D01*
X95000Y210000D01*
Y216000D01*
X135000D01*
Y194000D01*
X95000D01*
G01X100700Y225657D02*
X104283D01*
X105033Y225910D01*
X105533Y226417D01*
X105700Y227050D01*
X105533Y227683D01*
X105033Y228190D01*
X104283Y228443D01*
X100700D01*
G01X105700Y232150D02*
X100700D01*
X101700Y231390D01*
G01X105700D02*
Y232910D01*
G01X120657Y129300D02*
Y125717D01*
X120910Y124967D01*
X121417Y124467D01*
X122050Y124300D01*
X122683Y124467D01*
X123190Y124967D01*
X123443Y125717D01*
Y129300D01*
G01X125757Y125300D02*
X126137Y124717D01*
X126643Y124383D01*
X127213Y124300D01*
X127720Y124383D01*
X128227Y124800D01*
X128543Y125300D01*
X128607Y125800D01*
X128480Y126383D01*
X128037Y126800D01*
X127593Y126967D01*
X127023D01*
G01X127593D02*
X127973Y127217D01*
X128290Y127633D01*
X128417Y128133D01*
X128290Y128633D01*
X127973Y129050D01*
X127403Y129300D01*
X126833Y129217D01*
X126263Y128883D01*
G01X145000Y96000D02*
Y124000D01*
X155000D01*
Y96000D01*
X145000D01*
G01X155883Y114500D02*
Y117600D01*
X156842D01*
X157148Y117445D01*
X157340Y117238D01*
X157417Y116825D01*
X157340Y116412D01*
X157110Y116154D01*
X156842Y115998D01*
X155883D01*
G01X156842D02*
X157417Y114500D01*
G01X159750D02*
X160019Y114552D01*
X160325Y114707D01*
X160517Y114965D01*
X160593Y115327D01*
X160517Y115688D01*
X160287Y115998D01*
X159942Y116154D01*
X159558D01*
X159328Y116257D01*
X159137Y116515D01*
X159060Y116877D01*
X159175Y117238D01*
X159443Y117497D01*
X159750Y117600D01*
X160057Y117497D01*
X160325Y117238D01*
X160440Y116877D01*
X160363Y116515D01*
X160172Y116257D01*
X159942Y116154D01*
X159558D01*
X159213Y115998D01*
X158983Y115688D01*
X158907Y115327D01*
X158983Y114965D01*
X159175Y114707D01*
X159481Y114552D01*
X159750Y114500D01*
G01X164117Y195500D02*
Y192400D01*
X163158D01*
X162852Y192555D01*
X162660Y192762D01*
X162583Y193175D01*
X162660Y193588D01*
X162890Y193846D01*
X163158Y194002D01*
X164117D01*
G01X163158D02*
X162583Y195500D01*
G01X160978Y192917D02*
X160748Y192607D01*
X160480Y192452D01*
X160173Y192400D01*
X159790Y192503D01*
X159522Y192762D01*
X159445Y193072D01*
X159483Y193382D01*
X159637Y193640D01*
X160403Y194157D01*
X160748Y194519D01*
X160978Y195035D01*
X161055Y195500D01*
X159445D01*
G01X185000Y96000D02*
Y124000D01*
X195000D01*
Y96000D01*
X185000D01*
G01X165000D02*
Y124000D01*
X175000D01*
Y96000D01*
X165000D01*
G01X175883Y114500D02*
Y117600D01*
X176842D01*
X177148Y117445D01*
X177340Y117238D01*
X177417Y116825D01*
X177340Y116412D01*
X177110Y116154D01*
X176842Y115998D01*
X175883D01*
G01X176842D02*
X177417Y114500D01*
G01X179673D02*
X179750Y115172D01*
X179865Y115740D01*
X180019Y116257D01*
X180210Y116825D01*
X180517Y117600D01*
X178983D01*
G01X200000Y155000D02*
G03I-10000J0D01*
G01X175000Y214000D02*
Y186000D01*
X165000D01*
Y214000D01*
X175000D01*
G01X185000Y186000D02*
Y214000D01*
X195000D01*
Y186000D01*
X185000D01*
G01X215000Y96000D02*
Y124000D01*
X225000D01*
Y96000D01*
X215000D01*
G01X195883Y114500D02*
Y117600D01*
X196842D01*
X197148Y117445D01*
X197340Y117238D01*
X197417Y116825D01*
X197340Y116412D01*
X197110Y116154D01*
X196842Y115998D01*
X195883D01*
G01X196842D02*
X197417Y114500D01*
G01X198907Y114965D02*
X199137Y114707D01*
X199405Y114552D01*
X199750Y114500D01*
X200095Y114603D01*
X200363Y114810D01*
X200555Y115172D01*
X200593Y115585D01*
X200517Y115998D01*
X200325Y116257D01*
X200057Y116463D01*
X199788Y116515D01*
X199520Y116463D01*
X199175Y116257D01*
X199290Y117600D01*
X200325D01*
G01X211157Y141417D02*
X211537Y141167D01*
X211980Y141000D01*
X212487D01*
X213057Y141250D01*
X213500Y141667D01*
X213817Y142167D01*
X214070Y143000D01*
X214133Y143750D01*
X214007Y144500D01*
X213817Y145000D01*
X213437Y145500D01*
X212993Y145833D01*
X212550Y146000D01*
X212107D01*
X211663Y145833D01*
X211283Y145583D01*
X210967Y145250D01*
G01X207450Y146000D02*
Y141000D01*
X208210Y142000D01*
G01Y146000D02*
X206690D01*
G01X205000Y186000D02*
Y214000D01*
X215000D01*
Y186000D01*
X205000D01*
G01X195883Y204500D02*
Y207600D01*
X196842D01*
X197148Y207445D01*
X197340Y207238D01*
X197417Y206825D01*
X197340Y206412D01*
X197110Y206154D01*
X196842Y205998D01*
X195883D01*
G01X196842D02*
X197417Y204500D01*
G01X199750D02*
Y207600D01*
X199290Y206980D01*
G01Y204500D02*
X200210D01*
G01X215883D02*
Y207600D01*
X216842D01*
X217148Y207445D01*
X217340Y207238D01*
X217417Y206825D01*
X217340Y206412D01*
X217110Y206154D01*
X216842Y205998D01*
X215883D01*
G01X216842D02*
X217417Y204500D01*
G01X218907Y205120D02*
X219137Y204758D01*
X219443Y204552D01*
X219788Y204500D01*
X220095Y204552D01*
X220402Y204810D01*
X220593Y205120D01*
X220631Y205430D01*
X220555Y205792D01*
X220287Y206050D01*
X220019Y206154D01*
X219673D01*
G01X220019D02*
X220248Y206308D01*
X220440Y206567D01*
X220517Y206877D01*
X220440Y207187D01*
X220248Y207445D01*
X219903Y207600D01*
X219558Y207548D01*
X219213Y207342D01*
G01X235000Y96000D02*
Y124000D01*
X245000D01*
Y96000D01*
X235000D01*
G01X225883Y114500D02*
Y117600D01*
X226842D01*
X227148Y117445D01*
X227340Y117238D01*
X227417Y116825D01*
X227340Y116412D01*
X227110Y116154D01*
X226842Y115998D01*
X225883D01*
G01X226842D02*
X227417Y114500D01*
G01X229022Y115792D02*
X229290Y116154D01*
X229520Y116360D01*
X229827Y116463D01*
X230095Y116360D01*
X230287Y116154D01*
X230440Y115843D01*
X230478Y115481D01*
X230440Y115172D01*
X230287Y114861D01*
X230057Y114603D01*
X229788Y114500D01*
X229481Y114603D01*
X229213Y114913D01*
X229060Y115378D01*
X229022Y115895D01*
X229098Y116567D01*
X229213Y116928D01*
X229405Y117290D01*
X229673Y117548D01*
X229942Y117600D01*
X230210Y117497D01*
X230402Y117238D01*
G01X245883Y114500D02*
Y117600D01*
X246842D01*
X247148Y117445D01*
X247340Y117238D01*
X247417Y116825D01*
X247340Y116412D01*
X247110Y116154D01*
X246842Y115998D01*
X245883D01*
G01X246842D02*
X247417Y114500D01*
G01X249098Y114861D02*
X249367Y114603D01*
X249673Y114500D01*
X249980Y114603D01*
X250248Y114913D01*
X250440Y115378D01*
X250517Y115843D01*
Y116412D01*
X250440Y116877D01*
X250248Y117290D01*
X250019Y117497D01*
X249750Y117600D01*
X249443Y117497D01*
X249213Y117290D01*
X249060Y116980D01*
X248983Y116567D01*
X249060Y116205D01*
X249252Y115843D01*
X249481Y115637D01*
X249750Y115585D01*
X250057Y115688D01*
X250287Y115946D01*
X250517Y116412D01*
G01X245000Y186000D02*
Y214000D01*
X255000D01*
Y186000D01*
X245000D01*
G01X225000D02*
Y214000D01*
X235000D01*
Y186000D01*
X225000D01*
G01X234333Y204500D02*
Y207600D01*
X235292D01*
X235598Y207445D01*
X235790Y207238D01*
X235867Y206825D01*
X235790Y206412D01*
X235560Y206154D01*
X235292Y205998D01*
X234333D01*
G01X235292D02*
X235867Y204500D01*
G01X238200D02*
Y207600D01*
X237740Y206980D01*
G01Y204500D02*
X238660D01*
G01X241300D02*
Y207600D01*
X240840Y206980D01*
G01Y204500D02*
X241760D01*
G01X258843Y78583D02*
X258463Y78833D01*
X258020Y79000D01*
X257513D01*
X256943Y78750D01*
X256500Y78333D01*
X256183Y77833D01*
X255930Y77000D01*
X255867Y76250D01*
X255993Y75500D01*
X256183Y75000D01*
X256563Y74500D01*
X257007Y74167D01*
X257450Y74000D01*
X257893D01*
X258337Y74167D01*
X258717Y74417D01*
X259033Y74750D01*
G01X261346Y76083D02*
X261790Y76667D01*
X262170Y77000D01*
X262677Y77167D01*
X263120Y77000D01*
X263437Y76667D01*
X263690Y76167D01*
X263754Y75583D01*
X263690Y75083D01*
X263437Y74583D01*
X263057Y74167D01*
X262613Y74000D01*
X262107Y74167D01*
X261663Y74667D01*
X261410Y75417D01*
X261346Y76250D01*
X261473Y77333D01*
X261663Y77917D01*
X261980Y78500D01*
X262423Y78917D01*
X262867Y79000D01*
X263310Y78833D01*
X263627Y78417D01*
G01X290000Y65000D02*
G03I-10000J0D01*
G01X255883Y204500D02*
Y207600D01*
X256842D01*
X257148Y207445D01*
X257340Y207238D01*
X257417Y206825D01*
X257340Y206412D01*
X257110Y206154D01*
X256842Y205998D01*
X255883D01*
G01X256842D02*
X257417Y204500D01*
G01X260210D02*
Y207600D01*
X258792Y205378D01*
X260708D01*
G01X320000Y65000D02*
G03I-10000J0D01*
G01X294000Y135000D02*
X300000D01*
X302500Y132500D01*
X307500D01*
X310000Y135000D01*
X316000D01*
Y95000D01*
X294000D01*
Y135000D01*
G01X285000Y204000D02*
Y210000D01*
X287500Y212500D01*
Y217500D01*
X285000Y220000D01*
Y226000D01*
X325000D01*
Y204000D01*
X285000D01*
G01X290700Y235657D02*
X294283D01*
X295033Y235910D01*
X295533Y236417D01*
X295700Y237050D01*
X295533Y237683D01*
X295033Y238190D01*
X294283Y238443D01*
X290700D01*
G01X291533Y240946D02*
X291033Y241327D01*
X290783Y241770D01*
X290700Y242277D01*
X290867Y242910D01*
X291283Y243354D01*
X291783Y243480D01*
X292283Y243417D01*
X292700Y243163D01*
X293533Y241897D01*
X294117Y241327D01*
X294950Y240946D01*
X295700Y240820D01*
Y243480D01*
G01X331157Y51417D02*
X331537Y51167D01*
X331980Y51000D01*
X332487D01*
X333057Y51250D01*
X333500Y51667D01*
X333817Y52167D01*
X334070Y53000D01*
X334133Y53750D01*
X334007Y54500D01*
X333817Y55000D01*
X333437Y55500D01*
X332993Y55833D01*
X332550Y56000D01*
X332107D01*
X331663Y55833D01*
X331283Y55583D01*
X330967Y55250D01*
G01X328843D02*
X328463Y55667D01*
X328020Y55917D01*
X327450Y56000D01*
X326880Y55833D01*
X326437Y55500D01*
X326120Y54917D01*
X326057Y54250D01*
X326183Y53583D01*
X326500Y53167D01*
X326943Y52833D01*
X327387Y52750D01*
X327830Y52833D01*
X328400Y53167D01*
X328210Y51000D01*
X326500D01*
G01X325657Y129300D02*
Y125717D01*
X325910Y124967D01*
X326417Y124467D01*
X327050Y124300D01*
X327683Y124467D01*
X328190Y124967D01*
X328443Y125717D01*
Y129300D01*
G01X332910Y124300D02*
Y129300D01*
X330567Y125717D01*
X333733D01*
G01X328843Y218583D02*
X328463Y218833D01*
X328020Y219000D01*
X327513D01*
X326943Y218750D01*
X326500Y218333D01*
X326183Y217833D01*
X325930Y217000D01*
X325867Y216250D01*
X325993Y215500D01*
X326183Y215000D01*
X326563Y214500D01*
X327007Y214167D01*
X327450Y214000D01*
X327893D01*
X328337Y214167D01*
X328717Y214417D01*
X329033Y214750D01*
G01X331346Y218167D02*
X331727Y218667D01*
X332170Y218917D01*
X332677Y219000D01*
X333310Y218833D01*
X333754Y218417D01*
X333880Y217917D01*
X333817Y217417D01*
X333563Y217000D01*
X332297Y216167D01*
X331727Y215583D01*
X331346Y214750D01*
X331220Y214000D01*
X333880D01*
G01X360000Y205000D02*
G03I-10000J0D01*
G01X369016Y142795D02*
X379016D01*
Y122795D01*
X369016D01*
Y142795D01*
G01X380136Y142912D02*
X379826Y142720D01*
X379619Y142490D01*
X379516Y142222D01*
X379619Y141915D01*
X379826Y141685D01*
X380136Y141455D01*
X380549Y141379D01*
X382616D01*
G01X379516Y139045D02*
X382616D01*
X381996Y139505D01*
G01X379516D02*
Y138585D01*
M02*
