G04 ================== begin FILE IDENTIFICATION RECORD ==================*
G04 Layout Name:  C:/Users/user/Desktop/work/0801/EX1)OSCILLATOR/allegro/OSCILLATOR.brd*
G04 Film Name:    SilkTop*
G04 File Format:  Gerber RS274X*
G04 File Origin:  Cadence Allegro 17.2-S052*
G04 Origin Date:  Thu Aug 01 12:06:38 2019*
G04 *
G04 Layer:  BOARD GEOMETRY/DIMENSION*
G04 Layer:  BOARD GEOMETRY/DESIGN_OUTLINE*
G04 Layer:  REF DES/SILKSCREEN_TOP*
G04 Layer:  PACKAGE GEOMETRY/SILKSCREEN_TOP*
G04 Layer:  BOARD GEOMETRY/SILKSCREEN_TOP*
G04 *
G04 Offset:    (0.0000 0.0000)*
G04 Mirror:    No*
G04 Mode:      Positive*
G04 Rotation:  0*
G04 FullContactRelief:  No*
G04 UndefLineWidth:     0.2000*
G04 ================== end FILE IDENTIFICATION RECORD ====================*
%FSLAX25Y25*MOMM*%
%IR0*IPPOS*OFA0.00000B0.00000*MIA0B0*SFA1.00000B1.00000*%
%ADD10C,.3*%
%ADD11C,.5*%
%ADD12C,.2*%
G75*
%LPD*%
G75*
G54D10*
G01X1016000Y1905000D02*
G03I-254000J0D01*
G01X1498600Y1308100D02*
Y736600D01*
G01D02*
X2565400D01*
G01Y1308100D02*
X1498600D01*
G01Y1168400D02*
X2565400D01*
G01X1778000Y1905000D02*
G03I-254000J0D01*
G01X2565400Y736600D02*
Y1308100D01*
G01X2260600Y3429000D02*
X2413000D01*
X2476500Y3365500D01*
X2603500D01*
X2667000Y3429000D01*
X2819400D01*
Y2413000D01*
X2260600D01*
Y3429000D01*
G01X2413000Y4927600D02*
Y5080000D01*
X2476500Y5143500D01*
Y5270500D01*
X2413000Y5334000D01*
Y5486400D01*
X3429000D01*
Y4927600D01*
X2413000D01*
G01X5080000Y3937000D02*
G03I-254000J0D01*
G01X6832600Y1308100D02*
Y736600D01*
G01D02*
X7899400D01*
G01Y1308100D02*
X6832600D01*
G01Y1168400D02*
X7899400D01*
G01X7366000Y1651000D02*
G03I-254000J0D01*
G01X7899400Y736600D02*
Y1308100D01*
G01X8128000Y1651000D02*
G03I-254000J0D01*
G01X7467600Y3429000D02*
X7620000D01*
X7683500Y3365500D01*
X7810500D01*
X7874000Y3429000D01*
X8026400D01*
Y2413000D01*
X7467600D01*
Y3429000D01*
G01X7239000Y5181600D02*
Y5334000D01*
X7302500Y5397500D01*
Y5524500D01*
X7239000Y5588000D01*
Y5740400D01*
X8255000D01*
Y5181600D01*
X7239000D01*
G01X9144000Y5207000D02*
G03I-254000J0D01*
G54D11*
G01X2103120Y5842000D02*
Y6342000D01*
G01X2293620Y6175320D02*
Y5842000D01*
G01Y6308660D02*
X2288880Y6316990D01*
Y6333670D01*
X2293620Y6342000D01*
X2298360Y6333670D01*
Y6316990D01*
X2293620Y6308660D01*
G01X2443820Y5842000D02*
Y6175320D01*
G01Y6091990D02*
X2453300Y6133670D01*
X2467530Y6166990D01*
X2486490Y6175320D01*
X2503080Y6166990D01*
X2517310Y6133670D01*
X2524420Y6075330D01*
Y5842000D01*
G01X2639060Y6067000D02*
X2714920D01*
X2707810Y6125330D01*
X2695960Y6158660D01*
X2679360Y6175320D01*
X2662770Y6166990D01*
X2648540Y6142000D01*
X2639060Y6083660D01*
X2634320Y6033660D01*
Y5983670D01*
X2639060Y5933660D01*
X2650910Y5883660D01*
X2665140Y5850330D01*
X2681730Y5842000D01*
X2698330Y5858660D01*
X2714920Y5908650D01*
G01X2996350Y6175320D02*
X3024800Y5842000D01*
X3055620Y6175320D01*
X3086440Y5842000D01*
X3114890Y6175320D01*
G01X3246120D02*
Y5842000D01*
G01Y6308660D02*
X3241380Y6316990D01*
Y6333670D01*
X3246120Y6342000D01*
X3250860Y6333670D01*
Y6316990D01*
X3246120Y6308660D01*
G01X3479290Y6342000D02*
Y5842000D01*
G01Y5916980D02*
X3469810Y5875330D01*
X3455580Y5850330D01*
X3438990Y5842000D01*
X3420030Y5858660D01*
X3405800Y5900320D01*
X3396320Y5950330D01*
X3393950Y6008660D01*
X3396320Y6067000D01*
X3405800Y6117000D01*
X3420030Y6158660D01*
X3438990Y6175320D01*
X3455580Y6166990D01*
X3467440Y6150330D01*
X3479290Y6117000D01*
G01X3627120Y6342000D02*
Y5842000D01*
G01X3593930Y6175320D02*
X3660310D01*
G01X3777320Y5842000D02*
Y6342000D01*
G01Y6100340D02*
X3789170Y6142000D01*
X3801030Y6166990D01*
X3819990Y6175320D01*
X3834210Y6166990D01*
X3850810Y6133670D01*
X3857920Y6083660D01*
Y5842000D01*
G01X4198620Y5825340D02*
X4193880Y5833670D01*
Y5850330D01*
X4198620Y5858660D01*
X4203360Y5850330D01*
Y5833670D01*
X4198620Y5825340D01*
G01Y6050320D02*
X4193880Y6058670D01*
Y6075330D01*
X4198620Y6083660D01*
X4203360Y6075330D01*
Y6058670D01*
X4198620Y6050320D01*
G01X4579620Y6342000D02*
X4560650Y6325340D01*
X4546430Y6283660D01*
X4536950Y6233670D01*
X4529840Y6166990D01*
X4527470Y6091990D01*
X4529840Y6016990D01*
X4536950Y5950330D01*
X4546430Y5900320D01*
X4560650Y5858660D01*
X4579620Y5842000D01*
X4598580Y5858660D01*
X4612810Y5900320D01*
X4622290Y5950330D01*
X4629400Y6016990D01*
X4631770Y6091990D01*
X4629400Y6166990D01*
X4622290Y6233670D01*
X4612810Y6283660D01*
X4598580Y6325340D01*
X4579620Y6342000D01*
G01X4770120Y5825340D02*
X4765380Y5833670D01*
Y5850330D01*
X4770120Y5858660D01*
X4774860Y5850330D01*
Y5833670D01*
X4770120Y5825340D01*
G01X4908470Y5916980D02*
X4922690Y5875330D01*
X4939280Y5850330D01*
X4960620Y5842000D01*
X4981960Y5858660D01*
X4998550Y5891990D01*
X5010400Y5950330D01*
X5012770Y6016990D01*
X5008030Y6083660D01*
X4996180Y6125330D01*
X4979580Y6158660D01*
X4962990Y6166990D01*
X4946400Y6158660D01*
X4925060Y6125330D01*
X4932170Y6342000D01*
X4996180D01*
G01X5080000Y5842000D02*
Y6175320D01*
G01Y6083660D02*
X5087110Y6125330D01*
X5098970Y6158660D01*
X5115560Y6175320D01*
X5132150Y6158660D01*
X5144010Y6125330D01*
X5151120Y6083660D01*
Y5842000D01*
G01Y6083660D02*
X5158230Y6125330D01*
X5170080Y6158660D01*
X5186680Y6175320D01*
X5203270Y6158660D01*
X5215130Y6125330D01*
X5222240Y6075330D01*
Y5842000D01*
G01X5270500D02*
Y6175320D01*
G01Y6083660D02*
X5277610Y6125330D01*
X5289470Y6158660D01*
X5306060Y6175320D01*
X5322650Y6158660D01*
X5334510Y6125330D01*
X5341620Y6083660D01*
Y5842000D01*
G01Y6083660D02*
X5348730Y6125330D01*
X5360580Y6158660D01*
X5377180Y6175320D01*
X5393770Y6158660D01*
X5405630Y6125330D01*
X5412740Y6075330D01*
Y5842000D01*
G01X5682320D02*
Y6342000D01*
G01Y6100340D02*
X5694170Y6142000D01*
X5706030Y6166990D01*
X5724990Y6175320D01*
X5739210Y6166990D01*
X5755810Y6133670D01*
X5762920Y6083660D01*
Y5842000D01*
G01X5877560Y6067000D02*
X5953420D01*
X5946310Y6125330D01*
X5934460Y6158660D01*
X5917860Y6175320D01*
X5901270Y6166990D01*
X5887040Y6142000D01*
X5877560Y6083660D01*
X5872820Y6033660D01*
Y5983670D01*
X5877560Y5933660D01*
X5889410Y5883660D01*
X5903640Y5850330D01*
X5920230Y5842000D01*
X5936830Y5858660D01*
X5953420Y5908650D01*
G01X6103620Y6175320D02*
Y5842000D01*
G01Y6308660D02*
X6098880Y6316990D01*
Y6333670D01*
X6103620Y6342000D01*
X6108360Y6333670D01*
Y6316990D01*
X6103620Y6308660D01*
G01X6260930Y5717000D02*
X6277530Y5683670D01*
X6296490Y5675340D01*
X6313080Y5683670D01*
X6327310Y5725330D01*
X6336790Y5783660D01*
Y6175320D01*
G01Y6108670D02*
X6327310Y6142000D01*
X6313080Y6166990D01*
X6296490Y6175320D01*
X6277530Y6158660D01*
X6265670Y6125330D01*
X6256190Y6067000D01*
X6251450Y6008660D01*
X6253820Y5958660D01*
X6263300Y5900320D01*
X6277530Y5858660D01*
X6296490Y5842000D01*
X6310710Y5850330D01*
X6327310Y5883660D01*
X6336790Y5916980D01*
G01X6444320Y5842000D02*
Y6342000D01*
G01Y6100340D02*
X6456170Y6142000D01*
X6468030Y6166990D01*
X6486990Y6175320D01*
X6501210Y6166990D01*
X6517810Y6133670D01*
X6524920Y6083660D01*
Y5842000D01*
G01X6675120Y6342000D02*
Y5842000D01*
G01X6641930Y6175320D02*
X6708310D01*
G01X7056120Y5825340D02*
X7051380Y5833670D01*
Y5850330D01*
X7056120Y5858660D01*
X7060860Y5850330D01*
Y5833670D01*
X7056120Y5825340D01*
G01Y6050320D02*
X7051380Y6058670D01*
Y6075330D01*
X7056120Y6083660D01*
X7060860Y6075330D01*
Y6058670D01*
X7056120Y6050320D01*
G01X7384970Y5916980D02*
X7399190Y5875330D01*
X7415780Y5850330D01*
X7437120Y5842000D01*
X7458460Y5858660D01*
X7475050Y5891990D01*
X7486900Y5950330D01*
X7489270Y6016990D01*
X7484530Y6083660D01*
X7472680Y6125330D01*
X7456080Y6158660D01*
X7439490Y6166990D01*
X7422900Y6158660D01*
X7401560Y6125330D01*
X7408670Y6342000D01*
X7472680D01*
G01X7747000Y5842000D02*
Y6175320D01*
G01Y6083660D02*
X7754110Y6125330D01*
X7765970Y6158660D01*
X7782560Y6175320D01*
X7799150Y6158660D01*
X7811010Y6125330D01*
X7818120Y6083660D01*
Y5842000D01*
G01Y6083660D02*
X7825230Y6125330D01*
X7837080Y6158660D01*
X7853680Y6175320D01*
X7870270Y6158660D01*
X7882130Y6125330D01*
X7889240Y6075330D01*
Y5842000D01*
G01X7937500D02*
Y6175320D01*
G01Y6083660D02*
X7944610Y6125330D01*
X7956470Y6158660D01*
X7973060Y6175320D01*
X7989650Y6158660D01*
X8001510Y6125330D01*
X8008620Y6083660D01*
Y5842000D01*
G01Y6083660D02*
X8015730Y6125330D01*
X8027580Y6158660D01*
X8044180Y6175320D01*
X8060770Y6158660D01*
X8072630Y6125330D01*
X8079740Y6075330D01*
Y5842000D01*
G01X2865120Y762000D02*
Y1262000D01*
G01X3055620Y1095320D02*
Y762000D01*
G01Y1228660D02*
X3050880Y1236990D01*
Y1253670D01*
X3055620Y1262000D01*
X3060360Y1253670D01*
Y1236990D01*
X3055620Y1228660D01*
G01X3205820Y762000D02*
Y1095320D01*
G01Y1011990D02*
X3215300Y1053670D01*
X3229530Y1086990D01*
X3248490Y1095320D01*
X3265080Y1086990D01*
X3279310Y1053670D01*
X3286420Y995330D01*
Y762000D01*
G01X3401060Y987000D02*
X3476920D01*
X3469810Y1045330D01*
X3457960Y1078660D01*
X3441360Y1095320D01*
X3424770Y1086990D01*
X3410540Y1062000D01*
X3401060Y1003660D01*
X3396320Y953660D01*
Y903670D01*
X3401060Y853660D01*
X3412910Y803660D01*
X3427140Y770330D01*
X3443730Y762000D01*
X3460330Y778660D01*
X3476920Y828650D01*
G01X3758350Y1095320D02*
X3786800Y762000D01*
X3817620Y1095320D01*
X3848440Y762000D01*
X3876890Y1095320D01*
G01X4008120D02*
Y762000D01*
G01Y1228660D02*
X4003380Y1236990D01*
Y1253670D01*
X4008120Y1262000D01*
X4012860Y1253670D01*
Y1236990D01*
X4008120Y1228660D01*
G01X4241290Y1262000D02*
Y762000D01*
G01Y836980D02*
X4231810Y795330D01*
X4217580Y770330D01*
X4200990Y762000D01*
X4182030Y778660D01*
X4167800Y820320D01*
X4158320Y870330D01*
X4155950Y928660D01*
X4158320Y987000D01*
X4167800Y1037000D01*
X4182030Y1078660D01*
X4200990Y1095320D01*
X4217580Y1086990D01*
X4229440Y1070330D01*
X4241290Y1037000D01*
G01X4389120Y1262000D02*
Y762000D01*
G01X4355930Y1095320D02*
X4422310D01*
G01X4539320Y762000D02*
Y1262000D01*
G01Y1020340D02*
X4551170Y1062000D01*
X4563030Y1086990D01*
X4581990Y1095320D01*
X4596210Y1086990D01*
X4612810Y1053670D01*
X4619920Y1003660D01*
Y762000D01*
G01X4960620Y745340D02*
X4955880Y753670D01*
Y770330D01*
X4960620Y778660D01*
X4965360Y770330D01*
Y753670D01*
X4960620Y745340D01*
G01Y970320D02*
X4955880Y978670D01*
Y995330D01*
X4960620Y1003660D01*
X4965360Y995330D01*
Y978670D01*
X4960620Y970320D01*
G01X5341620Y1262000D02*
X5322650Y1245340D01*
X5308430Y1203660D01*
X5298950Y1153670D01*
X5291840Y1086990D01*
X5289470Y1011990D01*
X5291840Y936990D01*
X5298950Y870330D01*
X5308430Y820320D01*
X5322650Y778660D01*
X5341620Y762000D01*
X5360580Y778660D01*
X5374810Y820320D01*
X5384290Y870330D01*
X5391400Y936990D01*
X5393770Y1011990D01*
X5391400Y1086990D01*
X5384290Y1153670D01*
X5374810Y1203660D01*
X5360580Y1245340D01*
X5341620Y1262000D01*
G01X5532120Y745340D02*
X5527380Y753670D01*
Y770330D01*
X5532120Y778660D01*
X5536860Y770330D01*
Y753670D01*
X5532120Y745340D01*
G01X5670470Y836980D02*
X5684690Y795330D01*
X5701280Y770330D01*
X5722620Y762000D01*
X5743960Y778660D01*
X5760550Y811990D01*
X5772400Y870330D01*
X5774770Y936990D01*
X5770030Y1003660D01*
X5758180Y1045330D01*
X5741580Y1078660D01*
X5724990Y1086990D01*
X5708400Y1078660D01*
X5687060Y1045330D01*
X5694170Y1262000D01*
X5758180D01*
G01X5842000Y762000D02*
Y1095320D01*
G01Y1003660D02*
X5849110Y1045330D01*
X5860970Y1078660D01*
X5877560Y1095320D01*
X5894150Y1078660D01*
X5906010Y1045330D01*
X5913120Y1003660D01*
Y762000D01*
G01Y1003660D02*
X5920230Y1045330D01*
X5932080Y1078660D01*
X5948680Y1095320D01*
X5965270Y1078660D01*
X5977130Y1045330D01*
X5984240Y995330D01*
Y762000D01*
G01X6032500D02*
Y1095320D01*
G01Y1003660D02*
X6039610Y1045330D01*
X6051470Y1078660D01*
X6068060Y1095320D01*
X6084650Y1078660D01*
X6096510Y1045330D01*
X6103620Y1003660D01*
Y762000D01*
G01Y1003660D02*
X6110730Y1045330D01*
X6122580Y1078660D01*
X6139180Y1095320D01*
X6155770Y1078660D01*
X6167630Y1045330D01*
X6174740Y995330D01*
Y762000D01*
G01X3420530Y1524000D02*
X3325710D01*
Y2024000D01*
X3420530D01*
G01X3382600Y1782340D02*
X3325710D01*
G01X3516210Y2024000D02*
Y1524000D01*
X3611030D01*
G01X3801530D02*
X3706710D01*
Y2024000D01*
X3801530D01*
G01X3763600Y1782340D02*
X3706710D01*
G01X3996770Y1982330D02*
X3982550Y2007340D01*
X3965960Y2024000D01*
X3946990D01*
X3925650Y1998990D01*
X3909060Y1957330D01*
X3897210Y1907330D01*
X3887720Y1824000D01*
X3885350Y1749000D01*
X3890100Y1674000D01*
X3897210Y1623990D01*
X3911430Y1573990D01*
X3928030Y1540660D01*
X3944620Y1524000D01*
X3961210D01*
X3977810Y1540660D01*
X3992030Y1565660D01*
X4003890Y1598980D01*
G01X4135120Y2024000D02*
Y1524000D01*
G01X4080600Y2024000D02*
X4189640D01*
G01X4278210Y1524000D02*
Y2024000D01*
X4337470D01*
X4356440Y1998990D01*
X4368290Y1965660D01*
X4373030Y1899000D01*
X4368290Y1832330D01*
X4354070Y1790670D01*
X4337470Y1765660D01*
X4278210D01*
G01X4337470D02*
X4373030Y1524000D01*
G01X4516120D02*
X4497150Y1532330D01*
X4480560Y1565660D01*
X4466340Y1615660D01*
X4456850Y1674000D01*
X4452110Y1740670D01*
Y1807330D01*
X4456850Y1874000D01*
X4466340Y1932340D01*
X4480560Y1982330D01*
X4497150Y2015670D01*
X4516120Y2024000D01*
X4535080Y2015670D01*
X4551680Y1982330D01*
X4565900Y1932340D01*
X4575390Y1874000D01*
X4580130Y1807330D01*
Y1740670D01*
X4575390Y1674000D01*
X4565900Y1615660D01*
X4551680Y1565660D01*
X4535080Y1532330D01*
X4516120Y1524000D01*
G01X4652100D02*
Y2024000D01*
X4761140Y1524000D01*
Y2024000D01*
G01X4868670D02*
X4925560D01*
G01X4897120D02*
Y1524000D01*
G01X4868670D02*
X4925560D01*
G01X5139770Y1982330D02*
X5125550Y2007340D01*
X5108960Y2024000D01*
X5089990D01*
X5068650Y1998990D01*
X5052060Y1957330D01*
X5040210Y1907330D01*
X5030720Y1824000D01*
X5028350Y1749000D01*
X5033100Y1674000D01*
X5040210Y1623990D01*
X5054430Y1573990D01*
X5071030Y1540660D01*
X5087620Y1524000D01*
X5104210D01*
X5120810Y1540660D01*
X5135030Y1565660D01*
X5146890Y1598980D01*
G01X5520770Y1982330D02*
X5506550Y2007340D01*
X5489960Y2024000D01*
X5470990D01*
X5449650Y1998990D01*
X5433060Y1957330D01*
X5421210Y1907330D01*
X5411720Y1824000D01*
X5409350Y1749000D01*
X5414100Y1674000D01*
X5421210Y1623990D01*
X5435430Y1573990D01*
X5452030Y1540660D01*
X5468620Y1524000D01*
X5485210D01*
X5501810Y1540660D01*
X5516030Y1565660D01*
X5527890Y1598980D01*
G01X5599850Y1524000D02*
X5659120Y2024000D01*
X5718390Y1524000D01*
G01X5697050Y1698990D02*
X5621190D01*
G01X5797470Y1524000D02*
Y2024000D01*
X5844880D01*
X5863840Y1998990D01*
X5878070Y1965660D01*
X5889920Y1915670D01*
X5899400Y1857320D01*
X5901770Y1773990D01*
X5899400Y1690660D01*
X5889920Y1632330D01*
X5878070Y1582320D01*
X5863840Y1548990D01*
X5844880Y1524000D01*
X5797470D01*
G01X3586820Y254000D02*
Y754000D01*
G01Y512340D02*
X3598670Y554000D01*
X3610530Y578990D01*
X3629490Y587320D01*
X3643710Y578990D01*
X3660310Y545670D01*
X3667420Y495660D01*
Y254000D01*
G01X3782060Y479000D02*
X3857920D01*
X3850810Y537330D01*
X3838960Y570660D01*
X3822360Y587320D01*
X3805770Y578990D01*
X3791540Y554000D01*
X3782060Y495660D01*
X3777320Y445660D01*
Y395670D01*
X3782060Y345660D01*
X3793910Y295660D01*
X3808140Y262330D01*
X3824730Y254000D01*
X3841330Y270660D01*
X3857920Y320650D01*
G01X4008120Y587320D02*
Y254000D01*
G01Y720660D02*
X4003380Y728990D01*
Y745670D01*
X4008120Y754000D01*
X4012860Y745670D01*
Y728990D01*
X4008120Y720660D01*
G01X4165430Y129000D02*
X4182030Y95670D01*
X4200990Y87340D01*
X4217580Y95670D01*
X4231810Y137330D01*
X4241290Y195660D01*
Y587320D01*
G01Y520670D02*
X4231810Y554000D01*
X4217580Y578990D01*
X4200990Y587320D01*
X4182030Y570660D01*
X4170170Y537330D01*
X4160690Y479000D01*
X4155950Y420660D01*
X4158320Y370660D01*
X4167800Y312320D01*
X4182030Y270660D01*
X4200990Y254000D01*
X4215210Y262330D01*
X4231810Y295660D01*
X4241290Y328980D01*
G01X4348820Y254000D02*
Y754000D01*
G01Y512340D02*
X4360670Y554000D01*
X4372530Y578990D01*
X4391490Y587320D01*
X4405710Y578990D01*
X4422310Y545670D01*
X4429420Y495660D01*
Y254000D01*
G01X4579620Y754000D02*
Y254000D01*
G01X4546430Y587320D02*
X4612810D01*
G01X4960620Y237340D02*
X4955880Y245670D01*
Y262330D01*
X4960620Y270660D01*
X4965360Y262330D01*
Y245670D01*
X4960620Y237340D01*
G01Y462320D02*
X4955880Y470670D01*
Y487330D01*
X4960620Y495660D01*
X4965360Y487330D01*
Y470670D01*
X4960620Y462320D01*
G01X5289470Y328980D02*
X5303690Y287330D01*
X5320280Y262330D01*
X5341620Y254000D01*
X5362960Y270660D01*
X5379550Y303990D01*
X5391400Y362330D01*
X5393770Y428990D01*
X5389030Y495660D01*
X5377180Y537330D01*
X5360580Y570660D01*
X5343990Y578990D01*
X5327400Y570660D01*
X5306060Y537330D01*
X5313170Y754000D01*
X5377180D01*
G01X5651500Y254000D02*
Y587320D01*
G01Y495660D02*
X5658610Y537330D01*
X5670470Y570660D01*
X5687060Y587320D01*
X5703650Y570660D01*
X5715510Y537330D01*
X5722620Y495660D01*
Y254000D01*
G01Y495660D02*
X5729730Y537330D01*
X5741580Y570660D01*
X5758180Y587320D01*
X5774770Y570660D01*
X5786630Y537330D01*
X5793740Y487330D01*
Y254000D01*
G01X5842000D02*
Y587320D01*
G01Y495660D02*
X5849110Y537330D01*
X5860970Y570660D01*
X5877560Y587320D01*
X5894150Y570660D01*
X5906010Y537330D01*
X5913120Y495660D01*
Y254000D01*
G01Y495660D02*
X5920230Y537330D01*
X5932080Y570660D01*
X5948680Y587320D01*
X5965270Y570660D01*
X5977130Y537330D01*
X5984240Y487330D01*
Y254000D01*
G01X3881120Y6350000D02*
X3862150Y6358330D01*
X3845560Y6391660D01*
X3831340Y6441660D01*
X3821850Y6500000D01*
X3817110Y6566670D01*
Y6633330D01*
X3821850Y6700000D01*
X3831340Y6758340D01*
X3845560Y6808330D01*
X3862150Y6841670D01*
X3881120Y6850000D01*
X3900080Y6841670D01*
X3916680Y6808330D01*
X3930900Y6758340D01*
X3940390Y6700000D01*
X3945130Y6633330D01*
Y6566670D01*
X3940390Y6500000D01*
X3930900Y6441660D01*
X3916680Y6391660D01*
X3900080Y6358330D01*
X3881120Y6350000D01*
G01X4021840Y6416650D02*
X4040800Y6374990D01*
X4062140Y6350000D01*
X4081100D01*
X4100070Y6374990D01*
X4114290Y6416650D01*
X4121400Y6475000D01*
X4116660Y6533320D01*
X4104810Y6583330D01*
X4083470Y6616670D01*
X4055030Y6633330D01*
X4038430Y6666660D01*
X4031320Y6725000D01*
X4036060Y6783330D01*
X4047910Y6824990D01*
X4064510Y6850000D01*
X4081100D01*
X4097700Y6833340D01*
X4111920Y6791660D01*
G01X4314270Y6808330D02*
X4300050Y6833340D01*
X4283460Y6850000D01*
X4264490D01*
X4243150Y6824990D01*
X4226560Y6783330D01*
X4214710Y6733330D01*
X4205220Y6650000D01*
X4202850Y6575000D01*
X4207600Y6500000D01*
X4214710Y6449990D01*
X4228930Y6399990D01*
X4245530Y6366660D01*
X4262120Y6350000D01*
X4278710D01*
X4295310Y6366660D01*
X4309530Y6391660D01*
X4321390Y6424980D01*
G01X4424170Y6850000D02*
X4481060D01*
G01X4452620D02*
Y6350000D01*
G01X4424170D02*
X4481060D01*
G01X4595710Y6850000D02*
Y6350000D01*
X4690530D01*
G01X4786210Y6850000D02*
Y6350000D01*
X4881030D01*
G01X4964850D02*
X5024120Y6850000D01*
X5083390Y6350000D01*
G01X5062050Y6524990D02*
X4986190D01*
G01X5214620Y6850000D02*
Y6350000D01*
G01X5160100Y6850000D02*
X5269140D01*
G01X5405120Y6350000D02*
X5386150Y6358330D01*
X5369560Y6391660D01*
X5355340Y6441660D01*
X5345850Y6500000D01*
X5341110Y6566670D01*
Y6633330D01*
X5345850Y6700000D01*
X5355340Y6758340D01*
X5369560Y6808330D01*
X5386150Y6841670D01*
X5405120Y6850000D01*
X5424080Y6841670D01*
X5440680Y6808330D01*
X5454900Y6758340D01*
X5464390Y6700000D01*
X5469130Y6633330D01*
Y6566670D01*
X5464390Y6500000D01*
X5454900Y6441660D01*
X5440680Y6391660D01*
X5424080Y6358330D01*
X5405120Y6350000D01*
G01X5548210D02*
Y6850000D01*
X5607470D01*
X5626440Y6824990D01*
X5638290Y6791660D01*
X5643030Y6725000D01*
X5638290Y6658330D01*
X5624070Y6616670D01*
X5607470Y6591660D01*
X5548210D01*
G01X5607470D02*
X5643030Y6350000D01*
G54D12*
G01X0Y0D02*
Y7000000D01*
X10000000D01*
Y0D01*
X0D01*
G01Y7250000D02*
Y8632000D01*
G01X4613140Y8382000D02*
X0D01*
G01X400000Y8444500D02*
X0Y8382000D01*
X400000Y8319500D01*
Y8444500D01*
G01X1029330Y571500D02*
Y525990D01*
X1036000Y516460D01*
X1049330Y510120D01*
X1066000Y508000D01*
X1082670Y510120D01*
X1096000Y516460D01*
X1102670Y525990D01*
Y571500D01*
G01X1144570Y517520D02*
X1154570Y512230D01*
X1166240Y509060D01*
X1181240Y508000D01*
X1196240Y510120D01*
X1207910Y514350D01*
X1216240Y521760D01*
X1217910Y530220D01*
X1214570Y538690D01*
X1206240Y543980D01*
X1194570Y548220D01*
X1182910Y549270D01*
X1171240Y548220D01*
X1156240Y543980D01*
X1161240Y571500D01*
X1206240D01*
G01X741050Y2344210D02*
X731050Y2347380D01*
X719380Y2349500D01*
X706050D01*
X691040Y2346320D01*
X679380Y2341030D01*
X671050Y2334680D01*
X664380Y2324100D01*
X662710Y2314570D01*
X666050Y2305050D01*
X671050Y2298700D01*
X681050Y2292350D01*
X692710Y2288120D01*
X704380Y2286000D01*
X716050D01*
X727710Y2288120D01*
X737710Y2291290D01*
X746050Y2295520D01*
G01X782950Y2298700D02*
X792950Y2291290D01*
X806280Y2287060D01*
X821290Y2286000D01*
X834620Y2287060D01*
X847950Y2292350D01*
X856290Y2298700D01*
X857950Y2305050D01*
X854620Y2312460D01*
X842950Y2317750D01*
X831290Y2319870D01*
X816290D01*
G01X831290D02*
X841290Y2323040D01*
X849620Y2328330D01*
X852950Y2334680D01*
X849620Y2341030D01*
X841290Y2346320D01*
X826290Y2349500D01*
X811290Y2348440D01*
X796290Y2344210D01*
G01X373000Y4127000D02*
X627000D01*
Y3365000D01*
X373000D01*
Y4127000D01*
G01X671050Y4076700D02*
X679380Y4070350D01*
X689380Y4066120D01*
X701050Y4064000D01*
X714380Y4066120D01*
X724380Y4070350D01*
X734380Y4076700D01*
X737710Y4085170D01*
Y4127500D01*
G01X787950Y4116920D02*
X797950Y4123270D01*
X809620Y4126440D01*
X822950Y4127500D01*
X839620Y4125380D01*
X851290Y4120090D01*
X854620Y4113740D01*
X852950Y4107390D01*
X846290Y4102100D01*
X812950Y4091520D01*
X797950Y4084110D01*
X787950Y4073520D01*
X784620Y4064000D01*
X854620D01*
G01X1503050Y2344210D02*
X1493050Y2347380D01*
X1481380Y2349500D01*
X1468050D01*
X1453040Y2346320D01*
X1441380Y2341030D01*
X1433050Y2334680D01*
X1426380Y2324100D01*
X1424710Y2314570D01*
X1428050Y2305050D01*
X1433050Y2298700D01*
X1443050Y2292350D01*
X1454710Y2288120D01*
X1466380Y2286000D01*
X1478050D01*
X1489710Y2288120D01*
X1499710Y2291290D01*
X1508050Y2295520D01*
G01X1601620Y2286000D02*
Y2349500D01*
X1539950Y2303990D01*
X1623290D01*
G01X1397000Y5270500D02*
Y5905500D01*
X1905000D01*
Y5270500D01*
X1397000D01*
G01X1357650Y5935980D02*
Y5999480D01*
X1399310D01*
X1412650Y5996300D01*
X1420980Y5992070D01*
X1424310Y5983600D01*
X1420980Y5975140D01*
X1410980Y5969850D01*
X1399310Y5966670D01*
X1357650D01*
G01X1399310D02*
X1424310Y5935980D01*
G01X1506220D02*
Y5999480D01*
X1486220Y5986780D01*
G01Y5935980D02*
X1526220D01*
G01X1621460Y5999480D02*
X1608120Y5997360D01*
X1598130Y5992070D01*
X1591460Y5985720D01*
X1586460Y5977250D01*
X1584790Y5967730D01*
X1586460Y5958200D01*
X1591460Y5949740D01*
X1598130Y5943390D01*
X1608120Y5938100D01*
X1621460Y5935980D01*
X1634790Y5938100D01*
X1644790Y5943390D01*
X1651460Y5949740D01*
X1656460Y5958200D01*
X1658130Y5967730D01*
X1656460Y5977250D01*
X1651460Y5985720D01*
X1644790Y5992070D01*
X1634790Y5997360D01*
X1621460Y5999480D01*
G01X2445710Y4635500D02*
Y4589990D01*
X2452380Y4580460D01*
X2465710Y4574120D01*
X2482380Y4572000D01*
X2499050Y4574120D01*
X2512380Y4580460D01*
X2519050Y4589990D01*
Y4635500D01*
G01X2597620Y4572000D02*
Y4635500D01*
X2577620Y4622800D01*
G01Y4572000D02*
X2617620D01*
G01X3070550Y3220720D02*
Y3175210D01*
X3077220Y3165680D01*
X3090550Y3159340D01*
X3107220Y3157220D01*
X3123890Y3159340D01*
X3137220Y3165680D01*
X3143890Y3175210D01*
Y3220720D01*
G01X3185790Y3169920D02*
X3195790Y3162510D01*
X3209120Y3158280D01*
X3224130Y3157220D01*
X3237460Y3158280D01*
X3250790Y3163570D01*
X3259130Y3169920D01*
X3260790Y3176270D01*
X3257460Y3183680D01*
X3245790Y3188970D01*
X3234130Y3191090D01*
X3219130D01*
G01X3234130D02*
X3244130Y3194260D01*
X3252460Y3199550D01*
X3255790Y3205900D01*
X3252460Y3212250D01*
X3244130Y3217540D01*
X3229130Y3220720D01*
X3214130Y3219660D01*
X3199130Y3215430D01*
G01X3683000Y2438400D02*
Y3149600D01*
X3937000D01*
Y2438400D01*
X3683000D01*
G01X3927330Y2908300D02*
Y2971800D01*
X3968990D01*
X3982330Y2968620D01*
X3990660Y2964390D01*
X3993990Y2955920D01*
X3990660Y2947460D01*
X3980660Y2942170D01*
X3968990Y2938990D01*
X3927330D01*
G01X3968990D02*
X3993990Y2908300D01*
G01X4075900D02*
X4087570Y2909360D01*
X4100900Y2912530D01*
X4109230Y2917820D01*
X4112570Y2925230D01*
X4109230Y2932640D01*
X4099230Y2938990D01*
X4084230Y2942170D01*
X4067570D01*
X4057570Y2944280D01*
X4049230Y2949570D01*
X4045900Y2956980D01*
X4050900Y2964390D01*
X4062560Y2969680D01*
X4075900Y2971800D01*
X4089230Y2969680D01*
X4100900Y2964390D01*
X4105900Y2956980D01*
X4102570Y2949570D01*
X4094230Y2944280D01*
X4084230Y2942170D01*
X4067570D01*
X4052570Y2938990D01*
X4042570Y2932640D01*
X4039230Y2925230D01*
X4042570Y2917820D01*
X4050900Y2912530D01*
X4064230Y2909360D01*
X4075900Y2908300D01*
G01X4699000Y2438400D02*
Y3149600D01*
X4953000D01*
Y2438400D01*
X4699000D01*
G01X4191000D02*
Y3149600D01*
X4445000D01*
Y2438400D01*
X4191000D01*
G01X4435330Y2908300D02*
Y2971800D01*
X4476990D01*
X4490330Y2968620D01*
X4498660Y2964390D01*
X4501990Y2955920D01*
X4498660Y2947460D01*
X4488660Y2942170D01*
X4476990Y2938990D01*
X4435330D01*
G01X4476990D02*
X4501990Y2908300D01*
G01X4580570D02*
X4583900Y2922060D01*
X4588900Y2933700D01*
X4595570Y2944280D01*
X4603900Y2955920D01*
X4617230Y2971800D01*
X4550570D01*
G01X4227050Y4572000D02*
Y4635500D01*
X4268710D01*
X4282050Y4632320D01*
X4290380Y4628090D01*
X4293710Y4619620D01*
X4290380Y4611160D01*
X4280380Y4605870D01*
X4268710Y4602690D01*
X4227050D01*
G01X4268710D02*
X4293710Y4572000D01*
G01X4343950Y4624920D02*
X4353950Y4631270D01*
X4365620Y4634440D01*
X4378950Y4635500D01*
X4395620Y4633380D01*
X4407290Y4628090D01*
X4410620Y4621740D01*
X4408950Y4615390D01*
X4402290Y4610100D01*
X4368950Y4599520D01*
X4353950Y4592110D01*
X4343950Y4581520D01*
X4340620Y4572000D01*
X4410620D01*
G01X4445000Y5435600D02*
Y4724400D01*
X4191000D01*
Y5435600D01*
X4445000D01*
G01X4735050Y4572000D02*
Y4635500D01*
X4776710D01*
X4790050Y4632320D01*
X4798380Y4628090D01*
X4801710Y4619620D01*
X4798380Y4611160D01*
X4788380Y4605870D01*
X4776710Y4602690D01*
X4735050D01*
G01X4776710D02*
X4801710Y4572000D01*
G01X4883620D02*
Y4635500D01*
X4863620Y4622800D01*
G01Y4572000D02*
X4903620D01*
G01X4699000Y4724400D02*
Y5435600D01*
X4953000D01*
Y4724400D01*
X4699000D01*
G01X4710760Y8350250D02*
Y8413750D01*
X4690760Y8401050D01*
G01Y8350250D02*
X4730760D01*
G01X4826000Y8413750D02*
X4812660Y8411630D01*
X4802670Y8406340D01*
X4796000Y8399990D01*
X4791000Y8391520D01*
X4789330Y8382000D01*
X4791000Y8372470D01*
X4796000Y8364010D01*
X4802670Y8357660D01*
X4812660Y8352370D01*
X4826000Y8350250D01*
X4839330Y8352370D01*
X4849330Y8357660D01*
X4856000Y8364010D01*
X4861000Y8372470D01*
X4862670Y8382000D01*
X4861000Y8391520D01*
X4856000Y8399990D01*
X4849330Y8406340D01*
X4839330Y8411630D01*
X4826000Y8413750D01*
G01X4941240D02*
X4927900Y8411630D01*
X4917910Y8406340D01*
X4911240Y8399990D01*
X4906240Y8391520D01*
X4904570Y8382000D01*
X4906240Y8372470D01*
X4911240Y8364010D01*
X4917910Y8357660D01*
X4927900Y8352370D01*
X4941240Y8350250D01*
X4954570Y8352370D01*
X4964570Y8357660D01*
X4971240Y8364010D01*
X4976240Y8372470D01*
X4977910Y8382000D01*
X4976240Y8391520D01*
X4971240Y8399990D01*
X4964570Y8406340D01*
X4954570Y8411630D01*
X4941240Y8413750D01*
G01X5461000Y2438400D02*
Y3149600D01*
X5715000D01*
Y2438400D01*
X5461000D01*
G01X4943330Y2908300D02*
Y2971800D01*
X4984990D01*
X4998330Y2968620D01*
X5006660Y2964390D01*
X5009990Y2955920D01*
X5006660Y2947460D01*
X4996660Y2942170D01*
X4984990Y2938990D01*
X4943330D01*
G01X4984990D02*
X5009990Y2908300D01*
G01X5055230Y2917820D02*
X5065230Y2912530D01*
X5076900Y2909360D01*
X5091900Y2908300D01*
X5106900Y2910420D01*
X5118570Y2914650D01*
X5126900Y2922060D01*
X5128570Y2930520D01*
X5125230Y2938990D01*
X5116900Y2944280D01*
X5105230Y2948520D01*
X5093570Y2949570D01*
X5081900Y2948520D01*
X5066900Y2944280D01*
X5071900Y2971800D01*
X5116900D01*
G01X5313050Y3868210D02*
X5303050Y3871380D01*
X5291380Y3873500D01*
X5278050D01*
X5263040Y3870320D01*
X5251380Y3865030D01*
X5243050Y3858680D01*
X5236380Y3848100D01*
X5234710Y3838570D01*
X5238050Y3829050D01*
X5243050Y3822700D01*
X5253050Y3816350D01*
X5264710Y3812120D01*
X5276380Y3810000D01*
X5288050D01*
X5299710Y3812120D01*
X5309710Y3815290D01*
X5318050Y3819520D01*
G01X5391620Y3810000D02*
Y3873500D01*
X5371620Y3860800D01*
G01Y3810000D02*
X5411620D01*
G01X5647710Y4432300D02*
Y4495800D01*
X5689370D01*
X5702710Y4492620D01*
X5711040Y4488390D01*
X5714370Y4479920D01*
X5711040Y4471460D01*
X5701040Y4466170D01*
X5689370Y4462990D01*
X5647710D01*
G01X5689370D02*
X5714370Y4432300D01*
G01X5796280D02*
Y4495800D01*
X5776280Y4483100D01*
G01Y4432300D02*
X5816280D01*
G01X5911520D02*
Y4495800D01*
X5891520Y4483100D01*
G01Y4432300D02*
X5931520D01*
G01X5197330D02*
Y4495800D01*
X5238990D01*
X5252330Y4492620D01*
X5260660Y4488390D01*
X5263990Y4479920D01*
X5260660Y4471460D01*
X5250660Y4466170D01*
X5238990Y4462990D01*
X5197330D01*
G01X5238990D02*
X5263990Y4432300D01*
G01X5309230Y4445000D02*
X5319230Y4437590D01*
X5332560Y4433360D01*
X5347570Y4432300D01*
X5360900Y4433360D01*
X5374230Y4438650D01*
X5382570Y4445000D01*
X5384230Y4451350D01*
X5380900Y4458760D01*
X5369230Y4464050D01*
X5357570Y4466170D01*
X5342570D01*
G01X5357570D02*
X5367570Y4469340D01*
X5375900Y4474630D01*
X5379230Y4480980D01*
X5375900Y4487330D01*
X5367570Y4492620D01*
X5352570Y4495800D01*
X5337570Y4494740D01*
X5322570Y4490510D01*
G01X5207000Y4724400D02*
Y5435600D01*
X5461000D01*
Y4724400D01*
X5207000D01*
G01X5038860Y8382000D02*
X10000000D01*
G01X6363330Y825500D02*
Y779990D01*
X6370000Y770460D01*
X6383330Y764120D01*
X6400000Y762000D01*
X6416670Y764120D01*
X6430000Y770460D01*
X6436670Y779990D01*
Y825500D01*
G01X6511910Y762000D02*
X6515240Y775760D01*
X6520240Y787400D01*
X6526910Y797980D01*
X6535240Y809620D01*
X6548570Y825500D01*
X6481910D01*
G01X5969000Y2438400D02*
Y3149600D01*
X6223000D01*
Y2438400D01*
X5969000D01*
G01X5705330Y2908300D02*
Y2971800D01*
X5746990D01*
X5760330Y2968620D01*
X5768660Y2964390D01*
X5771990Y2955920D01*
X5768660Y2947460D01*
X5758660Y2942170D01*
X5746990Y2938990D01*
X5705330D01*
G01X5746990D02*
X5771990Y2908300D01*
G01X5822230Y2934760D02*
X5833900Y2942170D01*
X5843900Y2946400D01*
X5857230Y2948520D01*
X5868900Y2946400D01*
X5877230Y2942170D01*
X5883900Y2935820D01*
X5885570Y2928410D01*
X5883900Y2922060D01*
X5877230Y2915710D01*
X5867230Y2910420D01*
X5855570Y2908300D01*
X5842230Y2910420D01*
X5830570Y2916760D01*
X5823900Y2926290D01*
X5822230Y2936870D01*
X5825570Y2950630D01*
X5830570Y2958040D01*
X5838900Y2965450D01*
X5850570Y2970740D01*
X5862230Y2971800D01*
X5873900Y2969680D01*
X5882230Y2964390D01*
G01X6213330Y2908300D02*
Y2971800D01*
X6254990D01*
X6268330Y2968620D01*
X6276660Y2964390D01*
X6279990Y2955920D01*
X6276660Y2947460D01*
X6266660Y2942170D01*
X6254990Y2938990D01*
X6213330D01*
G01X6254990D02*
X6279990Y2908300D01*
G01X6333570Y2915710D02*
X6345230Y2910420D01*
X6358570Y2908300D01*
X6371900Y2910420D01*
X6383570Y2916760D01*
X6391900Y2926290D01*
X6395230Y2935820D01*
Y2947460D01*
X6391900Y2956980D01*
X6383570Y2965450D01*
X6373570Y2969680D01*
X6361900Y2971800D01*
X6348560Y2969680D01*
X6338570Y2965450D01*
X6331900Y2959100D01*
X6328570Y2950630D01*
X6331900Y2943230D01*
X6340230Y2935820D01*
X6350230Y2931580D01*
X6361900Y2930520D01*
X6375230Y2932640D01*
X6385230Y2937930D01*
X6395230Y2947460D01*
G01X6213330Y4432300D02*
Y4495800D01*
X6254990D01*
X6268330Y4492620D01*
X6276660Y4488390D01*
X6279990Y4479920D01*
X6276660Y4471460D01*
X6266660Y4466170D01*
X6254990Y4462990D01*
X6213330D01*
G01X6254990D02*
X6279990Y4432300D01*
G01X6381900D02*
Y4495800D01*
X6320230Y4450290D01*
X6403570D01*
G01X6223000Y4724400D02*
Y5435600D01*
X6477000D01*
Y4724400D01*
X6223000D01*
G01X5715000D02*
Y5435600D01*
X5969000D01*
Y4724400D01*
X5715000D01*
G01X6583050Y1937810D02*
X6573050Y1940980D01*
X6561380Y1943100D01*
X6548050D01*
X6533040Y1939920D01*
X6521380Y1934630D01*
X6513050Y1928280D01*
X6506380Y1917700D01*
X6504710Y1908170D01*
X6508050Y1898650D01*
X6513050Y1892300D01*
X6523050Y1885950D01*
X6534710Y1881720D01*
X6546380Y1879600D01*
X6558050D01*
X6569710Y1881720D01*
X6579710Y1884890D01*
X6588050Y1889120D01*
G01X6629950Y1906060D02*
X6641620Y1913470D01*
X6651620Y1917700D01*
X6664950Y1919820D01*
X6676620Y1917700D01*
X6684950Y1913470D01*
X6691620Y1907120D01*
X6693290Y1899710D01*
X6691620Y1893360D01*
X6684950Y1887010D01*
X6674950Y1881720D01*
X6663290Y1879600D01*
X6649950Y1881720D01*
X6638290Y1888060D01*
X6631620Y1897590D01*
X6629950Y1908170D01*
X6633290Y1921930D01*
X6638290Y1929340D01*
X6646620Y1936750D01*
X6658290Y1942040D01*
X6669950Y1943100D01*
X6681620Y1940980D01*
X6689950Y1935690D01*
G01X7271710Y4889500D02*
Y4843990D01*
X7278380Y4834460D01*
X7291710Y4828120D01*
X7308380Y4826000D01*
X7325050Y4828120D01*
X7338380Y4834460D01*
X7345050Y4843990D01*
Y4889500D01*
G01X7391950Y4878920D02*
X7401950Y4885270D01*
X7413620Y4888440D01*
X7426950Y4889500D01*
X7443620Y4887380D01*
X7455290Y4882090D01*
X7458620Y4875740D01*
X7456950Y4869390D01*
X7450290Y4864100D01*
X7416950Y4853520D01*
X7401950Y4846110D01*
X7391950Y4835520D01*
X7388620Y4826000D01*
X7458620D01*
G01X8107050Y2090210D02*
X8097050Y2093380D01*
X8085380Y2095500D01*
X8072050D01*
X8057040Y2092320D01*
X8045380Y2087030D01*
X8037050Y2080680D01*
X8030380Y2070100D01*
X8028710Y2060570D01*
X8032050Y2051050D01*
X8037050Y2044700D01*
X8047050Y2038350D01*
X8058710Y2034120D01*
X8070380Y2032000D01*
X8082050D01*
X8093710Y2034120D01*
X8103710Y2037290D01*
X8112050Y2041520D01*
G01X8148950D02*
X8158950Y2036230D01*
X8170620Y2033060D01*
X8185620Y2032000D01*
X8200620Y2034120D01*
X8212290Y2038350D01*
X8220620Y2045760D01*
X8222290Y2054220D01*
X8218950Y2062690D01*
X8210620Y2067980D01*
X8198950Y2072220D01*
X8187290Y2073270D01*
X8175620Y2072220D01*
X8160620Y2067980D01*
X8165620Y2095500D01*
X8210620D01*
G01X8277550Y3220720D02*
Y3175210D01*
X8284220Y3165680D01*
X8297550Y3159340D01*
X8314220Y3157220D01*
X8330890Y3159340D01*
X8344220Y3165680D01*
X8350890Y3175210D01*
Y3220720D01*
G01X8449460Y3157220D02*
Y3220720D01*
X8387790Y3175210D01*
X8471130D01*
G01X9373000Y3627000D02*
X9627000D01*
Y3119000D01*
X9373000D01*
Y3627000D01*
G01X9307050Y3822700D02*
X9315380Y3816350D01*
X9325380Y3812120D01*
X9337050Y3810000D01*
X9350380Y3812120D01*
X9360380Y3816350D01*
X9370380Y3822700D01*
X9373710Y3831170D01*
Y3873500D01*
G01X9455620Y3810000D02*
Y3873500D01*
X9435620Y3860800D01*
G01Y3810000D02*
X9475620D01*
G01X8869050Y4630210D02*
X8859050Y4633380D01*
X8847380Y4635500D01*
X8834050D01*
X8819040Y4632320D01*
X8807380Y4627030D01*
X8799050Y4620680D01*
X8792380Y4610100D01*
X8790710Y4600570D01*
X8794050Y4591050D01*
X8799050Y4584700D01*
X8809050Y4578350D01*
X8820710Y4574120D01*
X8832380Y4572000D01*
X8844050D01*
X8855710Y4574120D01*
X8865710Y4577290D01*
X8874050Y4581520D01*
G01X8915950Y4624920D02*
X8925950Y4631270D01*
X8937620Y4634440D01*
X8950950Y4635500D01*
X8967620Y4633380D01*
X8979290Y4628090D01*
X8982620Y4621740D01*
X8980950Y4615390D01*
X8974290Y4610100D01*
X8940950Y4599520D01*
X8925950Y4592110D01*
X8915950Y4581520D01*
X8912620Y4572000D01*
X8982620D01*
G01X10000000Y7250000D02*
Y8632000D01*
G01X9600000Y8319500D02*
X10000000Y8382000D01*
X9600000Y8444500D01*
Y8319500D01*
G01X10250000Y0D02*
X10918000D01*
G01X10668000Y3222630D02*
Y0D01*
G01X10605500Y400000D02*
X10668000Y0D01*
X10730500Y400000D01*
X10605500D01*
G01X10607050Y3270250D02*
X10610380Y3284010D01*
X10615380Y3295650D01*
X10622050Y3306230D01*
X10630380Y3317870D01*
X10643710Y3333750D01*
X10577050D01*
G01X10725620D02*
X10712280Y3331630D01*
X10702290Y3326340D01*
X10695620Y3319990D01*
X10690620Y3311520D01*
X10688950Y3302000D01*
X10690620Y3292470D01*
X10695620Y3284010D01*
X10702290Y3277660D01*
X10712280Y3272370D01*
X10725620Y3270250D01*
X10738950Y3272370D01*
X10748950Y3277660D01*
X10755620Y3284010D01*
X10760620Y3292470D01*
X10762290Y3302000D01*
X10760620Y3311520D01*
X10755620Y3319990D01*
X10748950Y3326340D01*
X10738950Y3331630D01*
X10725620Y3333750D01*
G01X10668000Y3381370D02*
Y7000000D01*
G01X10250000D02*
X10918000D01*
G01X10730500Y6600000D02*
X10668000Y7000000D01*
X10605500Y6600000D01*
X10730500D01*
M02*
