G04 ================== begin FILE IDENTIFICATION RECORD ==================*
G04 Layout Name:  C:/Users/user/Desktop/work/0801/EX1)OSCILLATOR/allegro/OSCILLATOR.brd*
G04 Film Name:    SoldermaskBottom*
G04 File Format:  Gerber RS274X*
G04 File Origin:  Cadence Allegro 17.2-S052*
G04 Origin Date:  Thu Aug 01 12:06:38 2019*
G04 *
G04 Layer:  VIA CLASS/SOLDERMASK_BOTTOM*
G04 Layer:  PIN/SOLDERMASK_BOTTOM*
G04 Layer:  PACKAGE GEOMETRY/SOLDERMASK_BOTTOM*
G04 Layer:  BOARD GEOMETRY/SOLDERMASK_BOTTOM*
G04 *
G04 Offset:    (0.0000 0.0000)*
G04 Mirror:    No*
G04 Mode:      Positive*
G04 Rotation:  0*
G04 FullContactRelief:  No*
G04 UndefLineWidth:     0.0000*
G04 ================== end FILE IDENTIFICATION RECORD ====================*
%FSLAX25Y25*MOMM*%
%IR0*IPPOS*OFA0.00000B0.00000*MIA0B0*SFA1.00000B1.00000*%
%ADD14C,2.032*%
%ADD12C,1.905*%
%ADD11C,1.1176*%
%ADD10C,3.683*%
%ADD13R,1.905X1.905*%
%LPD*%
G75*
G54D10*
X500000Y500000D03*
Y6500000D03*
X9500000Y500000D03*
Y6500000D03*
G54D11*
X525890Y857900D03*
Y1365900D03*
Y1873900D03*
Y2381900D03*
Y2889900D03*
X1033890D03*
Y3397900D03*
Y3905900D03*
X525890Y4413900D03*
X1033890D03*
X525890Y4921900D03*
X1033890D03*
X525890Y5429900D03*
X1033890D03*
X525890Y5937900D03*
X1033890D03*
Y6445900D03*
X1541890Y857900D03*
Y1365900D03*
Y3905900D03*
Y4413900D03*
Y4921900D03*
Y5429900D03*
Y5937900D03*
Y6445900D03*
X2557890Y857900D03*
Y1873900D03*
X2049890D03*
X2557890Y1365900D03*
Y2381900D03*
X2049890D03*
X2557890Y3397900D03*
Y2889900D03*
X2049890D03*
X2557890Y3905900D03*
X2049890D03*
Y4921900D03*
X2557890Y5429900D03*
X2049890D03*
X2557890Y5937900D03*
X2049890D03*
Y6445900D03*
X3065890Y857900D03*
Y1873900D03*
Y1365900D03*
Y2381900D03*
Y3397900D03*
Y2889900D03*
Y3905900D03*
Y5429900D03*
X4081890Y857900D03*
X3573890D03*
X4081890Y1873900D03*
X3573890D03*
X4081890Y1365900D03*
X3573890D03*
Y2381900D03*
X4081890Y3397900D03*
X3573890D03*
Y2889900D03*
X4081890Y3905900D03*
X3573890D03*
X4081890Y4921900D03*
Y4413900D03*
X3573890Y4921900D03*
Y4413900D03*
X4081890Y5429900D03*
X3573890D03*
X4081890Y5937900D03*
X4589890Y857900D03*
Y1873900D03*
Y1365900D03*
Y3905900D03*
Y4921900D03*
Y4413900D03*
Y5429900D03*
Y5937900D03*
X5605890Y857900D03*
X5097890D03*
X5605890Y1873900D03*
X5097890D03*
X5605890Y1365900D03*
X5097890D03*
Y2381900D03*
X5605890Y2889900D03*
X5097890D03*
X5605890Y3905900D03*
X5097890D03*
X5605890Y4921900D03*
X5097890D03*
Y4413900D03*
X5605890Y5429900D03*
X5097890D03*
X5605890Y5937900D03*
X5097890D03*
X6113890Y857900D03*
Y1873900D03*
Y1365900D03*
Y2889900D03*
Y3905900D03*
Y4921900D03*
Y5429900D03*
Y5937900D03*
X6621890Y857900D03*
X7129890Y1873900D03*
X6621890D03*
X7129890Y1365900D03*
X6621890D03*
Y2381900D03*
X7129890D03*
Y3397900D03*
X6621890D03*
Y2889900D03*
X7129890D03*
Y3905900D03*
X6621890D03*
Y4921900D03*
X7129890D03*
X6621890Y5429900D03*
X7129890D03*
X6621890Y5937900D03*
X7129890D03*
X7637890Y857900D03*
Y1873900D03*
Y2381900D03*
Y3397900D03*
Y2889900D03*
Y3905900D03*
Y5429900D03*
X8653890Y349900D03*
X8145890D03*
Y857900D03*
X8653890D03*
Y1873900D03*
X8145890D03*
Y1365900D03*
X8653890D03*
Y2381900D03*
X8145890D03*
X8653890Y3397900D03*
Y2889900D03*
X8145890Y3905900D03*
X8653890D03*
X8145890Y4413900D03*
X8653890D03*
X8145890Y4921900D03*
X8653890D03*
X8145890Y5429900D03*
X8653890D03*
Y5937900D03*
Y6445900D03*
X9161890Y349900D03*
Y857900D03*
Y1365900D03*
Y1873900D03*
Y2381900D03*
Y3397900D03*
Y2889900D03*
Y3905900D03*
Y4413900D03*
Y4921900D03*
Y5429900D03*
Y5937900D03*
Y6445900D03*
X9669890Y857900D03*
Y1365900D03*
Y1873900D03*
Y2381900D03*
Y3397900D03*
Y2889900D03*
Y3905900D03*
Y4413900D03*
Y4921900D03*
Y5429900D03*
Y5937900D03*
G54D12*
X762000Y1778000D03*
Y2032000D03*
X500000Y3492000D03*
Y3746000D03*
Y4000000D03*
X1524000Y1778000D03*
Y2032000D03*
X1778000Y5334000D03*
X1524000Y5588000D03*
X1778000Y5842000D03*
X2032000Y1016000D03*
X2286000D03*
X2159000Y2540000D03*
Y2794000D03*
Y3048000D03*
X2540000Y5588000D03*
X2921000Y2540000D03*
Y2794000D03*
Y3048000D03*
Y3302000D03*
X3302000Y4826000D03*
X3048000D03*
X2794000D03*
X3302000Y5588000D03*
X3048000D03*
X2794000D03*
X4826000Y3810000D03*
Y4064000D03*
X7112000Y1778000D03*
Y1524000D03*
X7366000Y1016000D03*
X7620000D03*
X7874000Y1524000D03*
Y1778000D03*
X7366000Y2540000D03*
Y2794000D03*
Y3048000D03*
X7874000Y5080000D03*
X7620000D03*
X7874000Y5842000D03*
X7620000D03*
X7366000D03*
X8128000Y2540000D03*
Y2794000D03*
Y3048000D03*
Y3302000D03*
Y5080000D03*
Y5842000D03*
X9500000Y3246000D03*
Y3500000D03*
X8890000Y5334000D03*
Y5080000D03*
G54D13*
X1778000Y1016000D03*
X2159000Y3302000D03*
X2540000Y4826000D03*
X7112000Y1016000D03*
X7366000Y3302000D03*
Y5080000D03*
G54D14*
X3810000Y2286000D03*
Y3302000D03*
X4826000Y2286000D03*
X4318000D03*
X4826000Y3302000D03*
X4318000D03*
Y4572000D03*
X4826000D03*
X4318000Y5588000D03*
X4826000D03*
X5588000Y2286000D03*
Y3302000D03*
X5334000Y4572000D03*
Y5588000D03*
X6096000Y2286000D03*
Y3302000D03*
X6350000Y4572000D03*
X5842000D03*
X6350000Y5588000D03*
X5842000D03*
M02*
