G04 ================== begin FILE IDENTIFICATION RECORD ==================*
G04 Layout Name:  C:/Users/user/Desktop/work/0801/EX1)OSCILLATOR/allegro/OSCILLATOR.brd*
G04 Film Name:    SoldermaskBottom*
G04 File Format:  Gerber RS274X*
G04 File Origin:  Cadence Allegro 17.2-S052*
G04 Origin Date:  Thu Aug 01 11:20:29 2019*
G04 *
G04 Layer:  VIA CLASS/SOLDERMASK_BOTTOM*
G04 Layer:  PIN/SOLDERMASK_BOTTOM*
G04 Layer:  PACKAGE GEOMETRY/SOLDERMASK_BOTTOM*
G04 Layer:  BOARD GEOMETRY/SOLDERMASK_BOTTOM*
G04 *
G04 Offset:    (0.0000 0.0000)*
G04 Mirror:    No*
G04 Mode:      Positive*
G04 Rotation:  0*
G04 FullContactRelief:  No*
G04 UndefLineWidth:     0.0000*
G04 ================== end FILE IDENTIFICATION RECORD ====================*
%FSLAX25Y25*MOIN*%
%IR0*IPPOS*OFA0.00000B0.00000*MIA0B0*SFA1.00000B1.00000*%
%ADD13C,.08*%
%ADD11C,.075*%
%ADD10C,.145*%
%ADD12R,.075X.075*%
%LPD*%
G75*
G54D10*
X19685Y19685D03*
Y255906D03*
X374016Y19685D03*
Y255906D03*
G54D11*
X30000Y70000D03*
Y80000D03*
X19685Y137480D03*
Y147480D03*
Y157480D03*
X60000Y70000D03*
Y80000D03*
X70000Y210000D03*
X60000Y220000D03*
X70000Y230000D03*
X80000Y40000D03*
X90000D03*
X85000Y100000D03*
Y110000D03*
Y120000D03*
X100000Y220000D03*
X115000Y100000D03*
Y110000D03*
Y120000D03*
Y130000D03*
X130000Y190000D03*
X120000D03*
X110000D03*
X130000Y220000D03*
X120000D03*
X110000D03*
X190000Y150000D03*
Y160000D03*
X280000Y70000D03*
Y60000D03*
X290000Y40000D03*
X300000D03*
X310000Y60000D03*
Y70000D03*
X290000Y100000D03*
Y110000D03*
Y120000D03*
X310000Y200000D03*
X300000D03*
X310000Y230000D03*
X300000D03*
X290000D03*
X320000Y100000D03*
Y110000D03*
Y120000D03*
Y130000D03*
Y200000D03*
Y230000D03*
X374016Y127795D03*
Y137795D03*
X350000Y210000D03*
Y200000D03*
G54D12*
X70000Y40000D03*
X85000Y130000D03*
X100000Y190000D03*
X280000Y40000D03*
X290000Y130000D03*
Y200000D03*
G54D13*
X150000Y90000D03*
Y130000D03*
X190000Y90000D03*
X170000D03*
X190000Y130000D03*
X170000D03*
Y180000D03*
X190000D03*
X170000Y220000D03*
X190000D03*
X220000Y90000D03*
Y130000D03*
X210000Y180000D03*
Y220000D03*
X240000Y90000D03*
Y130000D03*
X250000Y180000D03*
X230000D03*
X250000Y220000D03*
X230000D03*
M02*
