G04 ================== begin FILE IDENTIFICATION RECORD ==================*
G04 Layout Name:  C:/Users/user/Desktop/work/0801/EX1)OSCILLATOR/allegro/OSCILLATOR.brd*
G04 Film Name:    TOP*
G04 File Format:  Gerber RS274X*
G04 File Origin:  Cadence Allegro 17.2-S052*
G04 Origin Date:  Thu Aug 01 12:06:38 2019*
G04 *
G04 Layer:  ETCH/TOP*
G04 Layer:  PIN/TOP*
G04 Layer:  VIA CLASS/TOP*
G04 *
G04 Offset:    (0.0000 0.0000)*
G04 Mirror:    No*
G04 Mode:      Positive*
G04 Rotation:  0*
G04 FullContactRelief:  No*
G04 UndefLineWidth:     0.0000*
G04 ================== end FILE IDENTIFICATION RECORD ====================*
%FSLAX25Y25*MOMM*%
%IR0*IPPOS*OFA0.00000B0.00000*MIA0B0*SFA1.00000B1.00000*%
%ADD10C,.635*%
%ADD11C,.6096*%
%ADD12C,1.524*%
%ADD16C,1.651*%
%ADD14C,1.905*%
%ADD15R,1.524X1.524*%
%ADD13R,1.905X1.905*%
%ADD17C,.5*%
%ADD18C,1.*%
%ADD22C,.864*%
%ADD23C,1.61*%
%ADD20C,2.6514*%
%ADD21R,5.0804X5.0804*%
%ADD19C,1.7784*%
G75*
%LPD*%
G75*
G36*
G01X9754020Y6604000D02*
X9827000D01*
Y5734120D01*
G02X9809660Y5726940I-10158J4D01*
G01X9659120Y5877480D01*
G02X9666980Y5894800I7183J7184D01*
G03X9669890Y5894700I2938J43099D01*
G03X9626690Y5937900I0J43200D01*
G03X9626790Y5934990I43199J28D01*
G02X9609470Y5927130I-10136J-677D01*
G01X9387550Y6149050D01*
G03X9334500Y6171020I-53050J-53064D01*
G01X5842000D01*
G03X5766980Y6096000I0J-75020D01*
G01Y5697300D01*
G03X5709430Y5588000I75017J-109300D01*
G03X5974570I132570J0D01*
G03X5917020Y5697300I-132567J0D01*
G01Y6020980D01*
X7798980D01*
Y5943510D01*
G03X7756460Y5888000I75022J-101506D01*
G02X7737540I-9460J3703D01*
G03X7620000Y5968220I-117540J-46001D01*
G03Y5715780I0J-126220D01*
G03X7737540Y5796000I0J126221D01*
G02X7756460I9460J-3703D01*
G03X7874000Y5715780I117540J46001D01*
G03X8000220Y5842000I0J126220D01*
G03X7949020Y5943510I-126228J0D01*
G01Y6020980D01*
X8814980D01*
Y5435510D01*
G03X8763780Y5334000I75028J-101510D01*
G03X8844000Y5216460I126221J0D01*
G02Y5197540I-3703J-9460D01*
G03X8763780Y5080000I46001J-117540D01*
G03X9016220I126220J0D01*
G03X8936000Y5197540I-126221J0D01*
G02Y5216460I3703J9460D01*
G03X9016220Y5334000I-46001J117540D01*
G03X8965020Y5435510I-126228J0D01*
G01Y6020980D01*
X9303430D01*
X9703980Y5620430D01*
Y5477590D01*
G02X9689260Y5468510I-10161J1D01*
G03X9669890Y5473100I-19378J-38608D01*
G03Y5386700I0J-43200D01*
G03X9689260Y5391290I-8J43198D01*
G02X9703980Y5382210I4559J-9081D01*
G01Y4969590D01*
G02X9689260Y4960510I-10161J1D01*
G03X9669890Y4965100I-19378J-38608D01*
G03Y4878700I0J-43200D01*
G03X9689260Y4883290I-8J43198D01*
G02X9703980Y4874210I4559J-9081D01*
G01Y4461590D01*
G02X9689260Y4452510I-10161J1D01*
G03X9669890Y4457100I-19378J-38608D01*
G03Y4370700I0J-43200D01*
G03X9689260Y4375290I-8J43198D01*
G02X9703980Y4366210I4559J-9081D01*
G01Y3953590D01*
G02X9689260Y3944510I-10161J1D01*
G03X9669890Y3949100I-19378J-38608D01*
G03Y3862700I0J-43200D01*
G03X9689260Y3867290I-8J43198D01*
G02X9703980Y3858210I4559J-9081D01*
G01Y3445590D01*
G02X9689260Y3436510I-10161J1D01*
G03X9669890Y3441100I-19378J-38608D01*
G03Y3354700I0J-43200D01*
G03X9689260Y3359290I-8J43198D01*
G02X9703980Y3350210I4559J-9081D01*
G01Y2937590D01*
G02X9689260Y2928510I-10161J1D01*
G03X9669890Y2933100I-19378J-38608D01*
G03Y2846700I0J-43200D01*
G03X9689260Y2851290I-8J43198D01*
G02X9703980Y2842210I4559J-9081D01*
G01Y2429590D01*
G02X9689260Y2420510I-10161J1D01*
G03X9669890Y2425100I-19378J-38608D01*
G03Y2338700I0J-43200D01*
G03X9689260Y2343290I-8J43198D01*
G02X9703980Y2334210I4559J-9081D01*
G01Y2190070D01*
X9557430Y2043520D01*
X8333640D01*
G02X8326460Y2060860I4J10158D01*
G01X8498550Y2232950D01*
G03X8520520Y2286000I-53064J53050D01*
G01Y2764830D01*
X8619200Y2863510D01*
X8622820Y2859880D01*
X8622850Y2859850D01*
G03X8653890Y2846700I31040J30059D01*
G03X8697090Y2889900I0J43200D01*
G03X8684790Y2920090I-43200J0D01*
G01X8681280Y2923680D01*
X9128110Y3370510D01*
X9131700Y3367000D01*
G03X9161890Y3354700I30190J30900D01*
G03X9205090Y3397900I0J43200D01*
G03X9202860Y3411600I-43198J0D01*
G02X9212500Y3424980I9636J3220D01*
G01X9398490D01*
G03X9454000Y3382460I101506J75022D01*
G02Y3363540I-3703J-9460D01*
G03X9373780Y3246000I46001J-117540D01*
G03X9626220I126220J0D01*
G03X9546000Y3363540I-126221J0D01*
G02Y3382460I3703J9460D01*
G03X9626220Y3500000I-46001J117540D01*
G03X9500000Y3626220I-126220J0D01*
G03X9398490Y3575020I0J-126228D01*
G01X9151500D01*
G03X9098450Y3553050I0J-75034D01*
G01X9086280Y3540880D01*
X9085900Y3540610D01*
G03X9075330Y3531830I42449J-61856D01*
G01X9027960Y3484460D01*
G03X9019180Y3473890I53076J-53019D01*
G01X9018910Y3473510D01*
X8578280Y3032880D01*
X8577900Y3032610D01*
G03X8567330Y3023830I42449J-61856D01*
G01X8412530Y2869020D01*
X8229510D01*
G03X8174000Y2911540I-101506J-75022D01*
G02Y2930460I3703J9460D01*
G03X8254220Y3048000I-46001J117540D01*
G03X8001780I-126220J0D01*
G03X8082000Y2930460I126221J0D01*
G02Y2911540I-3703J-9460D01*
G03X8001780Y2794000I46001J-117540D01*
G03X8128000Y2667780I126220J0D01*
G03X8229510Y2718980I0J126228D01*
G01X8370480D01*
Y2317070D01*
X8223930Y2170520D01*
X6317570D01*
X6226360Y2261740D01*
X6226780Y2264310D01*
G03X6228570Y2286000I-130778J21712D01*
G03X6096000Y2153430I-132570J0D01*
G03X6117690Y2155220I-22J132568D01*
G01X6120260Y2155640D01*
X6215040Y2060860D01*
G02X6207860Y2043520I-7184J-7182D01*
G01X4901020D01*
Y2176700D01*
G03X4958570Y2286000I-75017J109300D01*
G03X4693430I-132570J0D01*
G03X4750980Y2176700I132567J0D01*
G01Y1999570D01*
X4643830Y1892430D01*
G02X4627740Y1894710I-7189J7180D01*
G03X4589890Y1917100I-37850J-20797D01*
G03X4546690Y1873900I0J-43200D01*
G03X4569080Y1836050I43187J0D01*
G02X4571360Y1819960I-4900J-8901D01*
G01X4455450Y1704050D01*
G03X4435110Y1666550I53053J-53042D01*
G01X4434260Y1662520D01*
X3587070D01*
X2910550Y2339050D01*
G03X2857500Y2361020I-53050J-53064D01*
G01X2610160D01*
G02X2600210Y2373220I2J10159D01*
G03X2601090Y2381900I-42320J8675D01*
G03X2514690I-43200J0D01*
G03X2515570Y2373220I43200J-5D01*
G02X2505620Y2361020I-9952J-2041D01*
G01X2102160D01*
G02X2092210Y2373220I2J10159D01*
G03X2093090Y2381900I-42320J8675D01*
G03X2006690I-43200J0D01*
G03X2007570Y2373220I43200J-5D01*
G02X1997620Y2361020I-9952J-2041D01*
G01X1853020D01*
Y2718980D01*
X2057490D01*
G03X2113000Y2676460I101506J75022D01*
G02Y2657540I-3703J-9460D01*
G03X2032780Y2540000I46001J-117540D01*
G03X2285220I126220J0D01*
G03X2205000Y2657540I-126221J0D01*
G02Y2676460I3703J9460D01*
G03Y2911540I-46001J117540D01*
G02Y2930460I3703J9460D01*
G03X2285220Y3048000I-46001J117540D01*
G03X2159000Y3174220I-126220J0D01*
G03X2057490Y3123020I0J-126228D01*
G01X1872570D01*
X1789520Y3206070D01*
Y3524930D01*
X1936070Y3671480D01*
X3651930D01*
X3734980Y3588430D01*
Y3411300D01*
G03X3677430Y3302000I75017J-109300D01*
G03X3810000Y3169430I132570J0D01*
G03X3906730Y3211340I0J132583D01*
G02X3921330Y3211580I7416J-6944D01*
G01X3988980Y3143930D01*
Y2540000D01*
G03X4010950Y2486950I75034J0D01*
G01X4187640Y2310260D01*
X4187220Y2307690D01*
G03X4185430Y2286000I130778J-21712D01*
G03X4318000Y2418570I132570J0D01*
G03X4296310Y2416780I22J-132568D01*
G01X4293740Y2416360D01*
X4139020Y2571070D01*
Y3175000D01*
G03X4117050Y3228050I-75034J0D01*
G01X3990050Y3355050D01*
G03X3937000Y3377020I-53050J-53064D01*
G01X3919330D01*
X3917810Y3379140D01*
G03X3885020Y3411300I-107818J-77134D01*
G01Y3619500D01*
G03X3863050Y3672550I-75034J0D01*
G01X3736050Y3799550D01*
G03X3683000Y3821520I-53050J-53064D01*
G01X1905000D01*
G03X1851950Y3799550I0J-75034D01*
G01X1661450Y3609050D01*
G03X1639480Y3556000I53064J-53050D01*
G01Y3175000D01*
G03X1661450Y3121950I75034J0D01*
G01X1788450Y2994950D01*
G03X1841500Y2972980I53050J53064D01*
G01X2057490D01*
G03X2113000Y2930460I101506J75022D01*
G02Y2911540I-3703J-9460D01*
G03X2101420Y2906320I46015J-117533D01*
G02X2087850Y2910510I-4640J9041D01*
G03X2049890Y2933100I-37960J-20599D01*
G03X2006690Y2889900I0J-43200D01*
G03X2007570Y2881220I43200J-5D01*
G02X1997620Y2869020I-9952J-2041D01*
G01X1778000D01*
G03X1702980Y2794000I0J-75020D01*
G01Y2286000D01*
G03X1778000Y2210980I75020J0D01*
G01X2826430D01*
X3502950Y1534450D01*
G03X3556000Y1512480I53050J53064D01*
G01X4508500D01*
G03X4583520Y1587500I0J75020D01*
G01Y1619930D01*
X4857070Y1893480D01*
X5045370D01*
G02X5055370Y1881530I-1J-10160D01*
G03X5054690Y1873900I42520J-7635D01*
G03X5141090I43200J0D01*
G03X5140410Y1881530I-43200J-5D01*
G02X5150410Y1893480I10001J1790D01*
G01X5553370D01*
G02X5563370Y1881530I-1J-10160D01*
G03X5562690Y1873900I42520J-7635D01*
G03X5649090I43200J0D01*
G03X5648410Y1881530I-43200J-5D01*
G02X5658410Y1893480I10001J1790D01*
G01X6061370D01*
G02X6071370Y1881530I-1J-10160D01*
G03X6070690Y1873900I42520J-7635D01*
G03X6157090I43200J0D01*
G03X6156410Y1881530I-43200J-5D01*
G02X6166410Y1893480I10001J1790D01*
G01X6569370D01*
G02X6579370Y1881530I-1J-10160D01*
G03X6578690Y1873900I42520J-7635D01*
G03X6665090I43200J0D01*
G03X6664410Y1881530I-43200J-5D01*
G02X6674410Y1893480I10001J1790D01*
G01X7025360D01*
G02X7031810Y1875470I-2J-10161D01*
G03X6985780Y1778000I80183J-97470D01*
G03X7066000Y1660460I126221J0D01*
G02Y1641540I-3703J-9460D01*
G03X6985780Y1524000I46001J-117540D01*
G03X7084880Y1400730I126217J0D01*
G02X7091680Y1386060I-2182J-9923D01*
G03X7086690Y1365900I38211J-20156D01*
G03X7173090I43200J0D01*
G03X7162620Y1394090I-43198J-5D01*
G02X7165980Y1409900I7702J6625D01*
G03X7238220Y1524000I-53988J114100D01*
G03X7158000Y1641540I-126221J0D01*
G02Y1660460I3703J9460D01*
G03X7188990Y1677980I-46002J117539D01*
G01X7797010D01*
G03X7828000Y1660460I76992J100019D01*
G02Y1641540I-3703J-9460D01*
G03X7747780Y1524000I46001J-117540D01*
G03X8000220I126220J0D01*
G03X7920000Y1641540I-126221J0D01*
G02Y1660460I3703J9460D01*
G03X8000220Y1778000I-46001J117540D01*
G03X7954190Y1875470I-126213J0D01*
G02X7960640Y1893480I6452J7849D01*
G01X8093370D01*
G02X8103370Y1881530I-1J-10160D01*
G03X8102690Y1873900I42520J-7635D01*
G03X8189090I43200J0D01*
G03X8188410Y1881530I-43200J-5D01*
G02X8198410Y1893480I10001J1790D01*
G01X8601370D01*
G02X8611370Y1881530I-1J-10160D01*
G03X8610690Y1873900I42520J-7635D01*
G03X8697090I43200J0D01*
G03X8696410Y1881530I-43200J-5D01*
G02X8706410Y1893480I10001J1790D01*
G01X9109370D01*
G02X9119370Y1881530I-1J-10160D01*
G03X9118690Y1873900I42520J-7635D01*
G03X9205090I43200J0D01*
G03X9204410Y1881530I-43200J-5D01*
G02X9214410Y1893480I10001J1790D01*
G01X9588500D01*
G03X9615070Y1898340I7J75021D01*
G02X9628420Y1886000I3595J-9502D01*
G03X9626690Y1873900I41470J-12103D01*
G03X9669890Y1917100I43200J0D01*
G03X9668100Y1917060I70J-43198D01*
G02X9660490Y1934400I-427J10153D01*
G01X9809660Y2083560D01*
G02X9827000Y2076380I7182J-7184D01*
G01Y100010D01*
X127000D01*
Y1901380D01*
G02X144340Y1908560I10158J-4D01*
G01X327950Y1724950D01*
G03X381000Y1702980I53050J53064D01*
G01X660490D01*
G03X686980Y1676490I101510J75020D01*
G01Y1112650D01*
G03X708950Y1059600I75034J0D01*
G01X805600Y962950D01*
G03X858650Y940980I53050J53064D01*
G01X1632730D01*
Y920750D01*
G03X1682750Y870730I50020J0D01*
G01X1873250D01*
G03X1919960Y902850I0J50024D01*
G02X1936150Y906840I9484J-3642D01*
G03X1956980Y891600I95854J109157D01*
G01Y762000D01*
G03X1978950Y708950I75034J0D01*
G01X2169450Y518450D01*
G03X2222500Y496480I53050J53064D01*
G01X6921500D01*
G03X6974550Y518450I0J75034D01*
G01X7165050Y708950D01*
G03X7187020Y762000I-53064J53050D01*
G01Y870730D01*
X7207250D01*
G03X7253960Y902850I0J50024D01*
G02X7270150Y906840I9484J-3642D01*
G03X7366000Y870730I95850J109157D01*
G03X7484700Y932250I0J145273D01*
G02X7501300I8300J-5857D01*
G03X7587240Y874470I118700J83749D01*
G02X7595030Y863300I-2289J-9898D01*
G03X7594690Y857900I42859J-5409D01*
G03X7681090I43200J0D01*
G03X7678460Y872740I-43199J-3D01*
G02X7683560Y885370I9540J3492D01*
G03X7765270Y1016000I-63564J130630D01*
G03X7620000Y1161270I-145270J0D01*
G03X7501300Y1099750I0J-145273D01*
G02X7484700I-8300J5857D01*
G03X7366000Y1161270I-118700J-83753D01*
G03X7335320Y1157990I15J-145268D01*
G03X7325030Y1170850I-63367J-40156D01*
G01X7310020Y1185860D01*
X7309630Y1186930D01*
G03X7239000Y1236670I-70630J-25277D01*
G01X3079070D01*
X2805520Y1510220D01*
Y1841500D01*
G03X2783550Y1894550I-75034J0D01*
G01X2593050Y2085050D01*
G03X2540000Y2107020I-53050J-53064D01*
G01X1625510D01*
G03X1599020Y2133510I-101510J-75020D01*
G01Y3302000D01*
G03X1577050Y3355050I-75034J0D01*
G01X1398060Y3534040D01*
X1397790Y3534420D01*
G03X1335920Y3567020I-61870J-42410D01*
G01X601510D01*
G03X546000Y3609540I-101506J-75022D01*
G02Y3628460I3703J9460D01*
G03Y3863540I-46001J117540D01*
G02Y3882460I3703J9460D01*
G03X626220Y4000000I-46001J117540D01*
G03X500000Y4126220I-126220J0D01*
G03X398490Y4075020I0J-126228D01*
G01X317500D01*
G03X264450Y4053050I0J-75034D01*
G01X144340Y3932940D01*
G02X127000Y3940120I-7182J7184D01*
G01Y6604000D01*
X245980D01*
Y6245980D01*
X754020D01*
Y6604000D01*
X9245980D01*
Y6245980D01*
X9754020D01*
Y6604000D01*
G37*
G36*
G01X202020Y2143860D02*
G02X219360Y2151040I10158J-4D01*
G01X391450Y1978950D01*
G03X444500Y1956980I53050J53064D01*
G01X660490D01*
G03X716000Y1914460I101506J75022D01*
G02Y1895540I-3703J-9460D01*
G03X660490Y1853020I45996J-117542D01*
G01X578160D01*
G02X568210Y1865220I2J10159D01*
G03X569090Y1873900I-42320J8675D01*
G03X482690I-43200J0D01*
G03X483570Y1865220I43200J-5D01*
G02X473620Y1853020I-9952J-2041D01*
G01X412070D01*
X202020Y2063070D01*
Y2143860D01*
G37*
G36*
G01X397110Y3656020D02*
G02X411430Y3656070I7185J-7183D01*
G03X454000Y3628460I88566J89932D01*
G02Y3609540I-3703J-9460D01*
G03X373780Y3492000I46001J-117540D01*
G03X500000Y3365780I126220J0D01*
G03X601510Y3416980I0J126228D01*
G01X981280D01*
G02X991300Y3405120I3J-10160D01*
G03X990690Y3397900I42589J-7234D01*
G03X1077090I43200J0D01*
G03X1076480Y3405120I-43199J-14D01*
G02X1086500Y3416980I10017J1700D01*
G01X1302930D01*
X1448980Y3270930D01*
Y2133510D01*
G03X1397780Y2032000I75028J-101510D01*
G03X1478000Y1914460I126221J0D01*
G02Y1895540I-3703J-9460D01*
G03X1422490Y1853020I45996J-117542D01*
G01X1364570D01*
X1132550Y2085050D01*
G03X1079500Y2107020I-53050J-53064D01*
G01X863510D01*
G03X660490I-101510J-75028D01*
G01X475570D01*
X329020Y2253570D01*
Y3587930D01*
X397110Y3656020D01*
G37*
G36*
G01X348570Y3924980D02*
X398490D01*
G03X454000Y3882460I101506J75022D01*
G02Y3863540I-3703J-9460D01*
G03X399990Y3823000I46004J-117537D01*
G01X398460Y3821020D01*
X381000D01*
G03X327950Y3799050I0J-75034D01*
G01X219360Y3690460D01*
G02X202020Y3697640I-7182J7184D01*
G01Y3778430D01*
X348570Y3924980D01*
G37*
G36*
G01X863510Y1956980D02*
X1048430D01*
X1280450Y1724950D01*
G03X1333500Y1702980I53050J53064D01*
G01X1422490D01*
G03X1448980Y1676490I101510J75020D01*
G01Y1460500D01*
G03X1494940Y1391340I75016J0D01*
G02X1500700Y1378910I-3931J-9371D01*
G03X1498690Y1365900I41188J-13024D01*
G03X1585090I43200J0D01*
G03X1584410Y1373530I-43200J-5D01*
G02X1594410Y1385480I10001J1790D01*
G01X1746930D01*
X1956980Y1175430D01*
Y1140400D01*
G03X1936150Y1125160I75024J-124397D01*
G02X1919960Y1129150I-6706J7632D01*
G03X1873250Y1161270I-46710J-17904D01*
G01X1682750D01*
G03X1632730Y1111250I0J-50020D01*
G01Y1091020D01*
X889720D01*
X837020Y1143720D01*
Y1676490D01*
G03X888220Y1778000I-75028J101510D01*
G03X808000Y1895540I-126221J0D01*
G02Y1914460I3703J9460D01*
G03X863510Y1956980I-45996J117542D01*
G37*
G36*
G01X1625510D02*
X2508930D01*
X2538530Y1927370D01*
G02X2536400Y1911380I-7184J-7180D01*
G03X2514690Y1873900I21498J-37480D01*
G03X2557890Y1830700I43200J0D01*
G03X2595370Y1852410I0J43208D01*
G02X2611360Y1854540I8810J-5054D01*
G01X2655480Y1810430D01*
Y1479150D01*
G03X2677450Y1426100I75034J0D01*
G01X2994950Y1108600D01*
G03X3048000Y1086630I53050J53064D01*
G01X6966730D01*
Y920750D01*
G03X7016750Y870730I50020J0D01*
G01X7036980D01*
Y793070D01*
X6890430Y646520D01*
X2253570D01*
X2107020Y793070D01*
Y891600D01*
G03X2150700Y932250I-75017J124402D01*
G02X2167300I8300J-5857D01*
G03X2286000Y870730I118700J83753D01*
G03Y1161270I0J145270D01*
G03X2167300Y1099750I0J-145273D01*
G02X2150700I-8300J5857D01*
G03X2107020Y1140400I-118697J-83752D01*
G01Y1206500D01*
G03X2085050Y1259550I-75034J0D01*
G01X1831050Y1513550D01*
G03X1778000Y1535520I-53050J-53064D01*
G01X1599020D01*
Y1676490D01*
G03X1650220Y1778000I-75028J101510D01*
G03X1570000Y1895540I-126221J0D01*
G02Y1914460I3703J9460D01*
G03X1625510Y1956980I-45996J117542D01*
G37*
G36*
G01X7183070Y1893480D02*
X7596920D01*
Y1887620D01*
X7596680Y1886870D01*
G03X7595480Y1882130I41214J-12956D01*
G01X7594680Y1878020D01*
X7188990D01*
G03X7180320Y1884130I-76980J-100027D01*
G02X7183070Y1893480I2753J4270D01*
G37*
%LPC*%
G75*
G36*
G01X2451080Y4749800D02*
Y4902200D01*
G02X2463800Y4914920I12720J0D01*
G01X2616200D01*
G02X2628920Y4902200I0J-12720D01*
G01Y4749800D01*
G02X2616200Y4737080I-12720J0D01*
G01X2463800D01*
G02X2451080Y4749800I0J12720D01*
G37*
G36*
G01X7277080Y5003800D02*
Y5156200D01*
G02X7289800Y5168920I12720J0D01*
G01X7442200D01*
G02X7454920Y5156200I0J-12720D01*
G01Y5003800D01*
G02X7442200Y4991080I-12720J0D01*
G01X7289800D01*
G02X7277080Y5003800I0J12720D01*
G37*
G36*
G01X2070080Y3225800D02*
Y3378200D01*
G02X2082800Y3390920I12720J0D01*
G01X2235200D01*
G02X2247920Y3378200I0J-12720D01*
G01Y3225800D01*
G02X2235200Y3213080I-12720J0D01*
G01X2082800D01*
G02X2070080Y3225800I0J12720D01*
G37*
G36*
G01X7277080D02*
Y3378200D01*
G02X7289800Y3390920I12720J0D01*
G01X7442200D01*
G02X7454920Y3378200I0J-12720D01*
G01Y3225800D01*
G02X7442200Y3213080I-12720J0D01*
G01X7289800D01*
G02X7277080Y3225800I0J12720D01*
G37*
G36*
G01X4039570Y5929220D02*
G02X4038690Y5937900I42320J8675D01*
G02X4125090I43200J0D01*
G02X4124210Y5929220I-43200J-5D01*
G03X4134160Y5917020I9952J-2041D01*
G01X5284000D01*
G02X5337050Y5895050I0J-75034D01*
G01X5387050Y5845050D01*
G02X5409020Y5792000I-53064J-53050D01*
G01Y5697300D01*
G02X5466570Y5588000I-75017J-109300D01*
G02X5201430I-132570J0D01*
G02X5258980Y5697300I132567J0D01*
G01Y5760930D01*
X5252930Y5766980D01*
X4901020D01*
Y5697300D01*
G02X4958570Y5588000I-75017J-109300D01*
G02X4693430I-132570J0D01*
G02X4750980Y5697300I132567J0D01*
G01Y5766980D01*
X3123020D01*
Y5689510D01*
G02X3174220Y5588000I-75028J-101510D01*
G02X3101980Y5473900I-126228J0D01*
G03X3098620Y5458090I4342J-9185D01*
G02X3109090Y5429900I-32728J-28195D01*
G02X3022690I-43200J0D01*
G02X3027680Y5450060I43201J4D01*
G03X3020880Y5464730I-8982J4747D01*
G02X2930460Y5542000I27118J123272D01*
G03X2911540I-9460J-3703D01*
G02X2794000Y5461780I-117540J46001D01*
G02Y5714220I0J126220D01*
G02X2911540Y5634000I0J-126221D01*
G03X2930460I9460J3703D01*
G02X2972980Y5689510I117542J-45996D01*
G01Y5766980D01*
X1879510D01*
G02X1778000Y5715780I-101510J75028D01*
G02X1685770Y5755830I0J126222D01*
G03X1671170Y5756070I-7416J-6942D01*
G01X1609930Y5694830D01*
G03X1610170Y5680230I7182J-7184D01*
G02X1650220Y5588000I-86172J-92230D01*
G02X1577980Y5473900I-126228J0D01*
G03X1574620Y5458090I4342J-9185D01*
G02X1585090Y5429900I-32728J-28195D01*
G02X1498690I-43200J0D01*
G02X1503680Y5450060I43201J4D01*
G03X1496880Y5464730I-8982J4747D01*
G02X1397780Y5588000I27117J123270D01*
G02X1448980Y5689510I126228J0D01*
G01Y5715000D01*
G02X1470950Y5768050I75034J0D01*
G01X1597950Y5895050D01*
G02X1651000Y5917020I53050J-53064D01*
G01X1676490D01*
G02X1879510I101510J-75028D01*
G01X1997620D01*
G03X2007570Y5929220I-2J10159D01*
G02X2006690Y5937900I42320J8675D01*
G02X2093090I43200J0D01*
G02X2092210Y5929220I-43200J-5D01*
G03X2102160Y5917020I9952J-2041D01*
G01X2505620D01*
G03X2515570Y5929220I-2J10159D01*
G02X2514690Y5937900I42320J8675D01*
G02X2601090I43200J0D01*
G02X2600210Y5929220I-43200J-5D01*
G03X2610160Y5917020I9952J-2041D01*
G01X4029620D01*
G03X4039570Y5929220I-2J10159D01*
G37*
G36*
G01X5725450Y3545550D02*
G02X5778500Y3567520I53050J-53064D01*
G01X6731000D01*
G02X6784050Y3545550I0J-75034D01*
G01X7038050Y3291550D01*
G02X7060020Y3238500I-53064J-53050D01*
G01Y2869020D01*
X7264490D01*
G02X7320000Y2911540I101506J-75022D01*
G03Y2930460I-3703J9460D01*
G02X7239780Y3048000I46001J117540D01*
G02X7492220I126220J0D01*
G02X7412000Y2930460I-126221J0D01*
G03Y2911540I3703J-9460D01*
G02Y2676460I-46001J-117540D01*
G03Y2657540I3703J-9460D01*
G02X7492220Y2540000I-46001J-117540D01*
G02X7239780I-126220J0D01*
G02X7320000Y2657540I126221J0D01*
G03Y2676460I-3703J9460D01*
G02X7264490Y2718980I45996J117542D01*
G01X6985000D01*
G02X6909980Y2794000I0J75020D01*
G01Y3207430D01*
X6699930Y3417480D01*
X6674410D01*
G03X6664410Y3405530I1J-10160D01*
G02X6665090Y3397900I-42520J-7635D01*
G02X6578690I-43200J0D01*
G02X6579370Y3405530I43200J-5D01*
G03X6569370Y3417480I-10001J1790D01*
G01X6192330D01*
G03X6185470Y3399820I-3J-10161D01*
G02X6228570Y3302000I-89456J-97820D01*
G02X5963430I-132570J0D01*
G02X6006530Y3399820I132556J0D01*
G03X5999670Y3417480I-6857J7499D01*
G01X5809570D01*
X5718360Y3326260D01*
X5718780Y3323690D01*
G02X5720570Y3302000I-130778J-21712D01*
G02X5588000Y3434570I-132570J0D01*
G02X5609690Y3432780I-22J-132568D01*
G01X5612260Y3432360D01*
X5725450Y3545550D01*
G37*
G36*
G01X4328450Y3482050D02*
G02X4381500Y3504020I53050J-53064D01*
G01X5080000D01*
G02X5133050Y3482050I0J-75034D01*
G01X5323550Y3291550D01*
G02X5345520Y3238500I-53064J-53050D01*
G01Y2444070D01*
X5428570Y2361020D01*
X5478700D01*
G02X5588000Y2418570I109300J-75017D01*
G02Y2153430I0J-132570D01*
G02X5478700Y2210980I0J132567D01*
G01X5397500D01*
G02X5344450Y2232950I0J75034D01*
G01X5217450Y2359950D01*
G02X5195480Y2413000I53064J53050D01*
G01Y3207430D01*
X5048930Y3353980D01*
X4962470D01*
G03X4952750Y3340840I-6J-10161D01*
G02X4958570Y3302000I-126749J-38849D01*
G02X4693430I-132570J0D01*
G02X4699250Y3340840I132569J-9D01*
G03X4689530Y3353980I-9714J2979D01*
G01X4647020D01*
Y2159000D01*
G02X4625050Y2105950I-75034J0D01*
G01X4434550Y1915450D01*
G02X4381500Y1893480I-53050J53064D01*
G01X4134410D01*
G03X4124410Y1881530I1J-10160D01*
G02X4125090Y1873900I-42520J-7635D01*
G02X4038690I-43200J0D01*
G02X4039370Y1881530I43200J-5D01*
G03X4029370Y1893480I-10001J1790D01*
G01X3683000D01*
G02X3629950Y1915450I0J75034D01*
G01X3439450Y2105950D01*
G02X3417480Y2159000I53064J53050D01*
G01Y2542990D01*
X3248950Y2711510D01*
G02X3242410Y2718980I53052J53045D01*
G01X3022510D01*
G02X2921000Y2667780I-101510J75028D01*
G02X2794780Y2794000I0J126220D01*
G02X2875000Y2911540I126221J0D01*
G03Y2930460I-3703J9460D01*
G02X2794780Y3048000I46001J117540D01*
G02X3047220I126220J0D01*
G02X2967000Y2930460I-126221J0D01*
G03Y2911540I3703J-9460D01*
G02X3005930Y2887370I-46006J-117537D01*
G03X3022880Y2893940I6834J7519D01*
G02X3065890Y2933100I43010J-4039D01*
G02X3109090Y2889900I0J-43200D01*
G02X3108210Y2881220I-43200J-5D01*
G03X3118160Y2869020I9952J-2041D01*
G01X3302000D01*
G02X3376930Y2797590I0J-75016D01*
G01X3377030Y2795630D01*
X3545550Y2627110D01*
G02X3567520Y2574060I-53064J-53050D01*
G01Y2190070D01*
X3714070Y2043520D01*
X4350430D01*
X4496980Y2190070D01*
Y3353980D01*
X4454470D01*
G03X4444750Y3340840I-6J-10161D01*
G02X4450570Y3302000I-126749J-38849D01*
G02X4185430I-132570J0D01*
G02X4273160Y3426760I132575J0D01*
G01X4328450Y3482050D01*
G37*
G36*
G01X7991540Y5126000D02*
G03X8010460I9460J3703D01*
G02X8128000Y5206220I117540J-46001D01*
G02X8254220Y5080000I0J-126220D01*
G02X8181980Y4965900I-126228J0D01*
G03X8178620Y4950090I4342J-9185D01*
G02X8189090Y4921900I-32728J-28195D01*
G02X8102690I-43200J0D01*
G02X8107680Y4942060I43201J4D01*
G03X8100880Y4956730I-8982J4747D01*
G02X8010460Y5034000I27118J123272D01*
G03X7991540I-9460J-3703D01*
G02X7874000Y4953780I-117540J46001D01*
G02X7857730Y4954830I-23J126221D01*
G01X7855250Y4955160D01*
X7822020Y4921930D01*
Y4629550D01*
G02X7800050Y4576500I-75034J0D01*
G01X7609550Y4386000D01*
G02X7556500Y4364030I-53050J53064D01*
G01X5334000D01*
G02X5258980Y4439050I0J75020D01*
G01Y4462700D01*
G02X5201430Y4572000I75017J109300D01*
G02X5466570I132570J0D01*
G02X5458920Y4527630I-132568J12D01*
G03X5468500Y4514070I9576J-3399D01*
G01X5707500D01*
G03X5717080Y4527630I4J10161D01*
G02X5709430Y4572000I124918J44382D01*
G02X5974570I132570J0D01*
G02X5966920Y4527630I-132568J12D01*
G03X5976500Y4514070I9576J-3399D01*
G01X6215500D01*
G03X6225080Y4527630I4J10161D01*
G02X6217430Y4572000I124918J44382D01*
G02X6350000Y4704570I132570J0D01*
G02X6459300Y4647020I0J-132567D01*
G01X7334930D01*
X7544980Y4857070D01*
Y4978490D01*
G02X7493780Y5080000I75028J101510D01*
G02X7620000Y5206220I126220J0D01*
G02X7737540Y5126000I0J-126221D01*
G03X7756460I9460J3703D01*
G02X7991540I117540J-46001D01*
G37*
G36*
G01X1702980Y5232490D02*
G02X1651780Y5334000I75028J101510D01*
G02X1904220I126220J0D01*
G02X1853020Y5232490I-126228J0D01*
G01Y4857070D01*
X2063070Y4647020D01*
X2718980D01*
Y4724490D01*
G02X2667780Y4826000I75028J101510D01*
G02X2794000Y4952220I126220J0D01*
G02X2911540Y4872000I0J-126221D01*
G03X2930460I9460J3703D01*
G02X3165540I117540J-46001D01*
G03X3184460I9460J3703D01*
G02X3302000Y4952220I117540J-46001D01*
G02X3428220Y4826000I0J-126220D01*
G02X3422140Y4787300I-126220J2D01*
G03X3431810Y4774020I9669J-3120D01*
G01X4155770D01*
G02X4185050Y4779970I29280J-69069D01*
G01X4445000D01*
G02X4512590Y4737510I0J-75027D01*
G01X4603070Y4647020D01*
X4716700D01*
G02X4826000Y4704570I109300J-75017D01*
G02X4958570Y4572000I0J-132570D01*
G02X4956780Y4550310I-132568J22D01*
G01X4956360Y4547740D01*
X5059900Y4444190D01*
G03X5067110Y4444220I3590J3593D01*
G02X5097890Y4457100I30773J-30323D01*
G02X5141090Y4413900I0J-43200D01*
G02X5100960Y4370810I-43199J0D01*
G03X5091520Y4360680I720J-10134D01*
G01Y4254500D01*
G02X5069550Y4201450I-75034J0D01*
G01X4950840Y4082750D01*
X4951170Y4080270D01*
G02X4952220Y4064000I-125171J-16247D01*
G02X4872000Y3946460I-126221J0D01*
G03Y3927540I3703J-9460D01*
G02X4952220Y3810000I-46001J-117540D01*
G02X4699780I-126220J0D01*
G02X4780000Y3927540I126221J0D01*
G03Y3946460I-3703J9460D01*
G02X4699780Y4064000I46001J117540D01*
G02X4826000Y4190220I126220J0D01*
G02X4842270Y4189170I23J-126221D01*
G01X4844750Y4188840D01*
X4941480Y4285570D01*
Y4350430D01*
X4850260Y4441640D01*
X4847690Y4441220D01*
G02X4826000Y4439430I-21712J130778D01*
G02X4716700Y4496980I0J132567D01*
G01X4572000D01*
G02X4518950Y4518950I0J75034D01*
G01X4467640Y4570270D01*
G03X4450310Y4563720I-7189J-7181D01*
G02X4318000Y4439430I-132310J8279D01*
G02X4208700Y4496980I0J132567D01*
G01X2032000D01*
G02X1978950Y4518950I0J75034D01*
G01X1724950Y4772950D01*
G02X1702980Y4826000I53064J53050D01*
G01Y5232490D01*
G37*
G54D22*
X9161890Y6445900D03*
X8653890D03*
X2049890D03*
X1541890D03*
X1033890D03*
X9161890Y5937900D03*
X8653890D03*
X7129890D03*
X6621890D03*
X1541890D03*
X1033890D03*
X525890D03*
X9161890Y5429900D03*
X8653890D03*
X8145890D03*
X7637890D03*
X7129890D03*
X6621890D03*
X6113890D03*
X5605890D03*
X5097890D03*
X4081890D03*
X3573890D03*
X2557890D03*
X2049890D03*
X1033890D03*
X525890D03*
X9161890Y4921900D03*
X8653890D03*
X7129890D03*
X6621890D03*
X6113890D03*
X5605890D03*
X5097890D03*
X4081890D03*
X3573890D03*
X2049890D03*
X1541890D03*
X1033890D03*
X525890D03*
X9161890Y4413900D03*
X8653890D03*
X8145890D03*
X4081890D03*
X3573890D03*
X1541890D03*
X1033890D03*
X525890D03*
X9161890Y3905900D03*
X8653890D03*
X8145890D03*
X7637890D03*
X7129890D03*
X6621890D03*
X6113890D03*
X5605890D03*
X5097890D03*
X3065890D03*
X2557890D03*
X2049890D03*
X1541890D03*
X1033890D03*
X8653890Y3397900D03*
X7637890D03*
X7129890D03*
X4081890D03*
X3065890D03*
X2557890D03*
X9161890Y2889900D03*
X7637890D03*
X6621890D03*
X6113890D03*
X5605890D03*
X5097890D03*
X2557890D03*
X9161890Y2381900D03*
X8653890D03*
X8145890D03*
X7637890D03*
X6621890D03*
X5097890D03*
X3065890D03*
X3573890Y1873900D03*
X3065890D03*
X9669890Y1365900D03*
X9161890D03*
X8653890D03*
X8145890D03*
X6621890D03*
X6113890D03*
X5605890D03*
X5097890D03*
X4589890D03*
X4081890D03*
X3573890D03*
X3065890D03*
X525890D03*
X9669890Y857900D03*
X9161890D03*
X8653890D03*
X8145890D03*
X1541890D03*
X525890D03*
X9161890Y349900D03*
X8653890D03*
X8145890D03*
X1033890Y2889900D03*
X525890D03*
Y2381900D03*
X2049890Y1873900D03*
X2557890Y1365900D03*
X6621890Y857900D03*
X6113890D03*
X5605890D03*
X5097890D03*
X4589890D03*
X4081890D03*
X3573890D03*
X3065890D03*
X2557890D03*
G54D23*
X4589890Y5429900D03*
G54D20*
X3810000Y2286000D03*
X6350000Y5588000D03*
X4318000D03*
G54D21*
X500000Y500000D03*
X9500000D03*
G54D19*
X8128000Y2540000D03*
Y3302000D03*
X2921000Y2540000D03*
Y3302000D03*
X8128000Y5842000D03*
X7366000D03*
X3302000Y5588000D03*
X2540000D03*
%LPD*%
G75*
G36*
G01X2869020Y4724490D02*
G03X2911540Y4780000I-75022J101506D01*
G02X2930460I9460J-3703D01*
G03X3048000Y4699780I117540J46001D01*
G03X3064270Y4700830I23J126221D01*
G01X3066750Y4701160D01*
X3103540Y4664360D01*
G02X3096360Y4647020I-7184J-7182D01*
G01X2869020D01*
Y4724490D01*
G37*
G36*
G01X7431510Y4531410D02*
X7654640Y4754540D01*
G02X7671980Y4747360I7182J-7184D01*
G01Y4660620D01*
X7525430Y4514070D01*
X7438690D01*
G02X7431510Y4531410I4J10158D01*
G37*
G54D10*
X500000Y500000D03*
Y6500000D03*
X9500000Y500000D03*
Y6500000D03*
G54D11*
X525890Y857900D03*
Y1365900D03*
Y1873900D03*
Y2381900D03*
Y2889900D03*
X1033890D03*
Y3397900D03*
Y3905900D03*
X525890Y4413900D03*
X1033890D03*
X525890Y4921900D03*
X1033890D03*
X525890Y5429900D03*
X1033890D03*
X525890Y5937900D03*
X1033890D03*
Y6445900D03*
X1541890Y857900D03*
Y1365900D03*
Y3905900D03*
Y4413900D03*
Y4921900D03*
Y5429900D03*
Y5937900D03*
Y6445900D03*
X2557890Y857900D03*
Y1873900D03*
X2049890D03*
X2557890Y1365900D03*
Y2381900D03*
X2049890D03*
X2557890Y3397900D03*
Y2889900D03*
X2049890D03*
X2557890Y3905900D03*
X2049890D03*
Y4921900D03*
X2557890Y5429900D03*
X2049890D03*
X2557890Y5937900D03*
X2049890D03*
Y6445900D03*
X3065890Y857900D03*
Y1873900D03*
Y1365900D03*
Y2381900D03*
Y3397900D03*
Y2889900D03*
Y3905900D03*
Y5429900D03*
X4081890Y857900D03*
X3573890D03*
X4081890Y1873900D03*
X3573890D03*
X4081890Y1365900D03*
X3573890D03*
Y2381900D03*
X4081890Y3397900D03*
X3573890D03*
Y2889900D03*
X4081890Y3905900D03*
X3573890D03*
X4081890Y4921900D03*
Y4413900D03*
X3573890Y4921900D03*
Y4413900D03*
X4081890Y5429900D03*
X3573890D03*
X4081890Y5937900D03*
X4589890Y857900D03*
Y1873900D03*
Y1365900D03*
Y3905900D03*
Y4921900D03*
Y4413900D03*
Y5429900D03*
Y5937900D03*
X5605890Y857900D03*
X5097890D03*
X5605890Y1873900D03*
X5097890D03*
X5605890Y1365900D03*
X5097890D03*
Y2381900D03*
X5605890Y2889900D03*
X5097890D03*
X5605890Y3905900D03*
X5097890D03*
X5605890Y4921900D03*
X5097890D03*
Y4413900D03*
X5605890Y5429900D03*
X5097890D03*
X5605890Y5937900D03*
X5097890D03*
X6113890Y857900D03*
Y1873900D03*
Y1365900D03*
Y2889900D03*
Y3905900D03*
Y4921900D03*
Y5429900D03*
Y5937900D03*
X6621890Y857900D03*
X7129890Y1873900D03*
X6621890D03*
X7129890Y1365900D03*
X6621890D03*
Y2381900D03*
X7129890D03*
Y3397900D03*
X6621890D03*
Y2889900D03*
X7129890D03*
Y3905900D03*
X6621890D03*
Y4921900D03*
X7129890D03*
X6621890Y5429900D03*
X7129890D03*
X6621890Y5937900D03*
X7129890D03*
X7637890Y857900D03*
Y1873900D03*
Y2381900D03*
Y3397900D03*
Y2889900D03*
Y3905900D03*
Y5429900D03*
X8653890Y349900D03*
X8145890D03*
Y857900D03*
X8653890D03*
Y1873900D03*
X8145890D03*
Y1365900D03*
X8653890D03*
Y2381900D03*
X8145890D03*
X8653890Y3397900D03*
Y2889900D03*
X8145890Y3905900D03*
X8653890D03*
X8145890Y4413900D03*
X8653890D03*
X8145890Y4921900D03*
X8653890D03*
X8145890Y5429900D03*
X8653890D03*
Y5937900D03*
Y6445900D03*
X9161890Y349900D03*
Y857900D03*
Y1365900D03*
Y1873900D03*
Y2381900D03*
Y3397900D03*
Y2889900D03*
Y3905900D03*
Y4413900D03*
Y4921900D03*
Y5429900D03*
Y5937900D03*
Y6445900D03*
X9669890Y857900D03*
Y1365900D03*
Y1873900D03*
Y2381900D03*
Y3397900D03*
Y2889900D03*
Y3905900D03*
Y4413900D03*
Y4921900D03*
Y5429900D03*
Y5937900D03*
G54D12*
X762000Y1778000D03*
Y2032000D03*
X500000Y3492000D03*
Y3746000D03*
Y4000000D03*
X1524000Y1778000D03*
Y2032000D03*
X1778000Y5334000D03*
X1524000Y5588000D03*
X1778000Y5842000D03*
X2159000Y2540000D03*
Y2794000D03*
Y3048000D03*
X2540000Y5588000D03*
X2921000Y2540000D03*
Y2794000D03*
Y3048000D03*
Y3302000D03*
X3302000Y4826000D03*
X3048000D03*
X2794000D03*
X3302000Y5588000D03*
X3048000D03*
X2794000D03*
X4826000Y3810000D03*
Y4064000D03*
X7112000Y1778000D03*
Y1524000D03*
X7874000D03*
Y1778000D03*
X7366000Y2540000D03*
Y2794000D03*
Y3048000D03*
X7874000Y5080000D03*
X7620000D03*
X7874000Y5842000D03*
X7620000D03*
X7366000D03*
X8128000Y2540000D03*
Y2794000D03*
Y3048000D03*
Y3302000D03*
Y5080000D03*
Y5842000D03*
X9500000Y3246000D03*
Y3500000D03*
X8890000Y5334000D03*
Y5080000D03*
G54D13*
X1778000Y1016000D03*
X7112000D03*
G54D14*
X2032000D03*
X2286000D03*
X7366000D03*
X7620000D03*
G54D15*
X2159000Y3302000D03*
X2540000Y4826000D03*
X7366000Y3302000D03*
Y5080000D03*
G54D16*
X3810000Y2286000D03*
Y3302000D03*
X4826000Y2286000D03*
X4318000D03*
X4826000Y3302000D03*
X4318000D03*
Y4572000D03*
X4826000D03*
X4318000Y5588000D03*
X4826000D03*
X5588000Y2286000D03*
Y3302000D03*
X5334000Y4572000D03*
Y5588000D03*
X6096000Y2286000D03*
Y3302000D03*
X6350000Y4572000D03*
X5842000D03*
X6350000Y5588000D03*
X5842000D03*
G54D17*
G01X500000Y4000000D02*
X317500D01*
X127500Y3810000D01*
X127000D01*
Y2032000D01*
X381000Y1778000D01*
X762000D01*
G01X500000Y3746000D02*
X381000D01*
X254500Y3619500D01*
X254000D01*
Y2222500D01*
X444500Y2032000D01*
X762000D01*
G01Y1778000D02*
Y1112650D01*
X858650Y1016000D01*
X1778000D01*
G01X762000Y2032000D02*
X1079500D01*
X1333500Y1778000D01*
X1524000D01*
G01Y2032000D02*
Y3302000D01*
X1335920Y3490080D01*
Y3492000D01*
X500000D01*
G01X2032000Y1016000D02*
Y1206500D01*
X1778000Y1460500D01*
X1524000D01*
Y1778000D01*
G01X2159000Y2794000D02*
X1778000D01*
Y2286000D01*
X2857500D01*
X3556000Y1587500D01*
X4508500D01*
Y1651000D01*
X4826000Y1968500D01*
G01X1524000Y2032000D02*
X2540000D01*
X2730500Y1841500D01*
Y1479150D01*
X3048000Y1161650D01*
X7239000D01*
Y1150780D01*
X7271980Y1117800D01*
Y1110020D01*
X7366000Y1016000D01*
G01X3810000Y3302000D02*
Y3619500D01*
X3683000Y3746500D01*
X1905000D01*
X1714500Y3556000D01*
Y3175000D01*
X1841500Y3048000D01*
X2159000D01*
G01X1778000Y5334000D02*
Y4826000D01*
X2032000Y4572000D01*
X2794000D01*
G01X1524000Y5588000D02*
Y5715000D01*
X1651000Y5842000D01*
X1778000D01*
G01D02*
X3048000D01*
G01X2032000Y1016000D02*
Y762000D01*
X2222500Y571500D01*
X6921500D01*
X7112000Y762000D01*
Y1016000D01*
G01X2921000Y2794000D02*
X3302000D01*
Y2764560D01*
X3492500Y2574060D01*
Y2159000D01*
X3683000Y1968500D01*
X4381500D01*
X4572000Y2159000D01*
Y3429000D01*
G01X3048000Y4826000D02*
X3175000Y4699000D01*
X4185050D01*
Y4704950D01*
X4445000D01*
Y4699000D01*
X4572000Y4572000D01*
X4826000D01*
G01X2794000D02*
X4318000D01*
G01X2794000D02*
Y4826000D01*
G01X3048000Y5842000D02*
Y5588000D01*
G01X4826000Y5842000D02*
X3048000D01*
G01X3810000Y3302000D02*
X3937000D01*
X4064000Y3175000D01*
Y2540000D01*
X4318000Y2286000D01*
G01X4826000Y1968500D02*
Y2286000D01*
G01X8890000Y6096000D02*
X9334500D01*
X9779000Y5651500D01*
Y2159000D01*
X9588500Y1968500D01*
X4826000D01*
G01Y3429000D02*
Y3302000D01*
G01X4318000D02*
Y3365500D01*
X4381500Y3429000D01*
X4572000D01*
G01X4826000Y4064000D02*
X5016500Y4254500D01*
Y4381500D01*
X4826000Y4572000D01*
G01Y3429000D02*
X4572000D01*
G01X5588000Y2286000D02*
X5397500D01*
X5270500Y2413000D01*
Y3238500D01*
X5080000Y3429000D01*
X4826000D01*
G01Y5588000D02*
Y5842000D01*
G01D02*
X5284000D01*
X5334000Y5792000D01*
Y5588000D01*
G01X5588000Y3302000D02*
X5778500Y3492500D01*
X6096000D01*
G01X5334000Y4572000D02*
Y4439050D01*
X5842000D01*
G01X8445500Y2794000D02*
Y2286000D01*
X8255000Y2095500D01*
X6286500D01*
X6096000Y2286000D01*
G01Y3302000D02*
Y3492500D01*
G01D02*
X6731000D01*
X6985000Y3238500D01*
Y2794000D01*
X7366000D01*
G01X5842000Y4439050D02*
Y4572000D01*
G01X7874000Y5080000D02*
X7747000Y4953000D01*
Y4629550D01*
X7556500Y4439050D01*
X5842000D01*
G01X6350000Y4572000D02*
X7366000D01*
X7620000Y4826000D01*
Y5080000D01*
G01X7874000Y6096000D02*
X5842000D01*
Y5588000D01*
G01X7874000Y5842000D02*
Y6096000D01*
G01D02*
X8890000D01*
G01X8128000Y2794000D02*
X8445500D01*
G01X9500000Y3500000D02*
X9151500D01*
X9130280Y3478780D01*
X9128380D01*
X9081010Y3431410D01*
Y3429510D01*
X8622280Y2970780D01*
X8620380D01*
X8445500Y2795900D01*
Y2794000D01*
G01X8890000Y6096000D02*
Y5334000D01*
G54D18*
G01X7874000Y1778000D02*
X7112000D01*
M02*
